<svg xmlns="http://www.w3.org/2000/svg" viewBox="0 0 22.4 22.4"><defs><style>.cls-1{fill:#fff;}</style></defs><title>youtube_1</title><g id="Layer_2" data-name="Layer 2"><g id="Layer_6" data-name="Layer 6"><polygon class="cls-1" points="9.28 14.08 14.27 11.2 9.28 8.32 9.28 14.08"/><path class="cls-1" d="M20.4,0H2A2,2,0,0,0,0,2V20.4a2,2,0,0,0,2,2H20.4a2,2,0,0,0,2-2V2A2,2,0,0,0,20.4,0Zm0,15.82a2.4,2.4,0,0,1-1.7,1.69,57.34,57.34,0,0,1-7.49.4,57.34,57.34,0,0,1-7.49-.4A2.4,2.4,0,0,1,2,15.82a25.06,25.06,0,0,1-.4-4.62A25.06,25.06,0,0,1,2,6.58a2.4,2.4,0,0,1,1.7-1.69,57.34,57.34,0,0,1,7.49-.4,57.34,57.34,0,0,1,7.49.4,2.4,2.4,0,0,1,1.7,1.69,25.06,25.06,0,0,1,.4,4.62A25.06,25.06,0,0,1,20.39,15.82Z"/></g></g></svg>