<svg xmlns="http://www.w3.org/2000/svg" viewBox="0 0 69.8 73.58"><defs><style>.cls-1{fill:#fff;}</style></defs><title>cog</title><g id="Layer_2" data-name="Layer 2"><g id="Layer_1-2" data-name="Layer 1"><path class="cls-1" d="M52,24.44a7.67,7.67,0,1,0,7.66,7.66A7.68,7.68,0,0,0,52,24.44Z"/><path class="cls-1" d="M13.09,15.38a10.15,10.15,0,0,0,1.72,4.16.62.62,0,0,1-.06.8l-2.19,2.2,1.64,1.65L16.39,22a.61.61,0,0,1,.8-.07,10.26,10.26,0,0,0,4.18,1.72.62.62,0,0,1,.52.62v3.11h2.33V24.27a.62.62,0,0,1,.52-.62,10.26,10.26,0,0,0,4.18-1.72.61.61,0,0,1,.8.07l2.2,2.19,1.64-1.65-2.2-2.2a.64.64,0,0,1-.06-.81A10.1,10.1,0,0,0,33,15.37a.62.62,0,0,1,.62-.52h3.09V12.52H33.65A.62.62,0,0,1,33,12,10,10,0,0,0,31.3,7.83a.62.62,0,0,1,.06-.8l2.2-2.21L31.92,3.18l-2.2,2.2a.64.64,0,0,1-.81.07,10,10,0,0,0-4.17-1.74.62.62,0,0,1-.52-.61V0H21.89V3.1a.62.62,0,0,1-.52.61A10.14,10.14,0,0,0,17.2,5.45a.65.65,0,0,1-.81-.07L14.2,3.18,12.56,4.82,14.75,7a.63.63,0,0,1,.07.8A10,10,0,0,0,13.09,12a.62.62,0,0,1-.62.52H9.37v2.33h3.1A.62.62,0,0,1,13.09,15.38Zm10-8.76A7.07,7.07,0,1,1,16,13.69,7.08,7.08,0,0,1,23.06,6.62Z"/><path class="cls-1" d="M35.39,50.63a15.3,15.3,0,0,0-2.6-6.26.61.61,0,0,1,.07-.8l3.43-3.44-2.84-2.84L30,40.73a.64.64,0,0,1-.81.07A15,15,0,0,0,23,38.2a.62.62,0,0,1-.52-.62V32.73h-4v4.85a.62.62,0,0,1-.52.62,15,15,0,0,0-6.25,2.6.64.64,0,0,1-.81-.07L7.4,37.29,4.56,40.13,8,43.57a.61.61,0,0,1,.07.8,15.16,15.16,0,0,0-2.6,6.26.62.62,0,0,1-.61.52H0v4H4.86a.62.62,0,0,1,.61.52A15.34,15.34,0,0,0,8.06,62a.61.61,0,0,1-.07.8L4.56,66.19,7.4,69l3.44-3.44a.64.64,0,0,1,.8-.07,15.14,15.14,0,0,0,6.25,2.59.62.62,0,0,1,.53.62v4.85h4V68.73a.62.62,0,0,1,.52-.62,14.81,14.81,0,0,0,6.26-2.59.65.65,0,0,1,.81.07L33.45,69l2.84-2.84-3.43-3.44a.61.61,0,0,1-.07-.8,15.34,15.34,0,0,0,2.6-6.26.62.62,0,0,1,.61-.52h4.86v-4H36A.62.62,0,0,1,35.39,50.63Zm-15,12.63a10.1,10.1,0,1,1,10.11-10.1A10.11,10.11,0,0,1,20.42,63.26Z"/><path class="cls-1" d="M65,29.9a13.11,13.11,0,0,0-2.26-5.43.62.62,0,0,1,.07-.81l3-2.95L63.4,18.33l-2.95,3a.62.62,0,0,1-.8.06,13.1,13.1,0,0,0-5.44-2.26.62.62,0,0,1-.52-.61V14.31H50.33v4.17a.62.62,0,0,1-.52.61,13.41,13.41,0,0,0-5.45,2.26.62.62,0,0,1-.8-.06l-3-3-2.38,2.38,3,2.95a.62.62,0,0,1,.07.81A13,13,0,0,0,39,29.9a.62.62,0,0,1-.61.52H34.21v3.36h4.18a.62.62,0,0,1,.61.52,13.36,13.36,0,0,0,2.25,5.45.62.62,0,0,1-.07.81l-3,2.95,2.38,2.36,3-2.94a.62.62,0,0,1,.8-.07,13.22,13.22,0,0,0,5.45,2.25.62.62,0,0,1,.52.62V49.9h3.36V45.73a.62.62,0,0,1,.52-.62,13,13,0,0,0,5.44-2.25.62.62,0,0,1,.8.07l2.95,2.94,2.38-2.36-3-2.95a.62.62,0,0,1-.07-.81A13.45,13.45,0,0,0,65,34.3a.62.62,0,0,1,.61-.52H69.8V30.42H65.63A.62.62,0,0,1,65,29.9ZM52,41a8.92,8.92,0,1,1,8.91-8.92A8.93,8.93,0,0,1,52,41Z"/><path class="cls-1" d="M20.42,44.32a8.85,8.85,0,1,0,8.86,8.84A8.85,8.85,0,0,0,20.42,44.32Z"/><path class="cls-1" d="M23.06,19.5a5.82,5.82,0,1,0-5.82-5.81A5.82,5.82,0,0,0,23.06,19.5Z"/></g></g></svg>