<svg xmlns="http://www.w3.org/2000/svg" viewBox="0 0 88.24 69.58"><defs><style>.cls-1{fill:#fff;}</style></defs><title>portal_1</title><g id="Layer_2" data-name="Layer 2"><g id="Layer_10" data-name="Layer 10"><path class="cls-1" d="M77.55,0H10.69A10.66,10.66,0,0,0,0,10.69v48.2A10.66,10.66,0,0,0,10.69,69.58H77.55A10.66,10.66,0,0,0,88.24,58.89V10.69A10.72,10.72,0,0,0,77.55,0Zm6.8,58.89a6.76,6.76,0,0,1-6.8,6.8H10.69a6.76,6.76,0,0,1-6.8-6.8v-40H84.35Zm0-43.92H3.89V10.69a6.76,6.76,0,0,1,6.8-6.8H77.55a6.76,6.76,0,0,1,6.8,6.8Z"/><circle class="cls-1" cx="9.82" cy="9.52" r="3.3"/><circle class="cls-1" cx="19.82" cy="9.52" r="3.3"/><circle class="cls-1" cx="29.93" cy="9.52" r="3.3"/><path class="cls-1" d="M13.7,55.1a1.88,1.88,0,0,0,2.72,0L28.86,42.66a1.86,1.86,0,0,0,0-2.72L16.42,27.5a1.92,1.92,0,0,0-2.72,2.72l11,11.08-11,11.08A1.87,1.87,0,0,0,13.7,55.1Z"/><path class="cls-1" d="M37.12,43.24H56.75a1.94,1.94,0,1,0,0-3.88H37.12a1.94,1.94,0,1,0,0,3.88Z"/></g></g></svg>