<svg xmlns="http://www.w3.org/2000/svg" viewBox="0 0 117.28 49.43"><defs><style>.cls-1{fill:#fff;}</style></defs><title>truck</title><g id="Layer_2" data-name="Layer 2"><g id="Layer_1-2" data-name="Layer 1"><path class="cls-1" d="M116.15,39.71l-.82-.07V2.11A2,2,0,0,0,113.57,0H38.25a2,2,0,0,0-1.81,2.11V38.05H32.25V7.47a2.87,2.87,0,0,0-2.74-3h-3a2.87,2.87,0,0,0-2.74,3v4.87H15.89c-1.1,0-2,.71-2.63,2.09,0,.08-2.6,9.87-2.6,9.87l-7,1.56a2.08,2.08,0,0,0-1.69,2V39.66l-.84.05a1.35,1.35,0,0,0,.07,2.68H6a7,7,0,0,0,6.75,6.93,7,7,0,0,0,6.75-6.93h17.4a7.13,7.13,0,0,0,6.87,7,6.86,6.86,0,0,0,6.16-4.11,6.87,6.87,0,0,0,6.16,4.11,7.15,7.15,0,0,0,6.88-7H87.09a7.14,7.14,0,0,0,6.88,7,6.87,6.87,0,0,0,6.16-4.11,6.86,6.86,0,0,0,6.16,4.11,7.13,7.13,0,0,0,6.87-7h2.91a1.29,1.29,0,0,0,1.21-1.34A1.3,1.3,0,0,0,116.15,39.71ZM13.51,23l1.91-7.34L15.6,15h8.21v9.14H13.21Zm-.77,14.19a4.33,4.33,0,0,1,3.16,1.39,5.22,5.22,0,0,1,0,6.88,4.3,4.3,0,0,1-6.33,0,5.27,5.27,0,0,1,0-6.92A4.39,4.39,0,0,1,12.74,37.22Zm17.09-9.47v12H19.13a6.84,6.84,0,0,0-6.39-4.92A6.84,6.84,0,0,0,6.35,39.7H4.4V28.45l.7-.16,6.33-1.42.09,0H29.83Zm0-19.68v16.1h-3.6v-17h3.6ZM48,43.41a4.49,4.49,0,0,1-4.23,3.41A4.38,4.38,0,0,1,40,44.46a5,5,0,0,1,.82-6,4.25,4.25,0,0,1,3-1.25,4.37,4.37,0,0,1,3.71,2.24A4.3,4.3,0,0,1,48,43.41Zm12.23.48a4.51,4.51,0,0,1-4.14,2.93,4.39,4.39,0,0,1-3.83-2.44,5,5,0,0,1,.83-5.89,4.16,4.16,0,0,1,6.59.8,5,5,0,0,1,.88,2.76A5.27,5.27,0,0,1,60.22,43.89ZM94,46.82a4.32,4.32,0,0,1-3.26-1.54,5.1,5.1,0,0,1-1.16-3.22,4.93,4.93,0,0,1,2-4A4.18,4.18,0,0,1,94,37.22a4.47,4.47,0,0,1,4.08,2.84,5.44,5.44,0,0,1,.41,2A4.65,4.65,0,0,1,94,46.82Zm12.31,0a4.29,4.29,0,0,1-3.4-1.76,5.07,5.07,0,0,1-1-3,4.94,4.94,0,0,1,1.84-3.85,4.18,4.18,0,0,1,2.59-1,4.46,4.46,0,0,1,4,2.72,5.14,5.14,0,0,1,.48,2.11A4.65,4.65,0,0,1,106.28,46.82Zm6.64-7.14-.24-.46a7,7,0,0,0-6.4-4.61,6.86,6.86,0,0,0-6.15,4.11,6.7,6.7,0,0,0-12.69,1H62.61a6.7,6.7,0,0,0-12.69-1,6.88,6.88,0,0,0-6.16-4.11,6.65,6.65,0,0,0-4.9,2.2V29.16h74.06V39.68Zm0-22.86v9.65H38.86V15.92h74.06Zm0-13.24v9.66H38.86V2.69h74.06Z"/></g></g></svg>