<svg version="1.1" xmlns="http://www.w3.org/2000/svg" xmlns:xlink="http://www.w3.org/1999/xlink" x="0px" y="0px" width="69.8px"
	 height="73.6px" viewBox="0 0 69.8 73.6" style="enable-background:new 0 0 69.8 73.6;" xml:space="preserve">
<style type="text/css">
	.st0{fill:#FFFFFF;}
</style>
<defs>
</defs>
<g>
	<g>
		<path class="st0" d="M52,24.4c-4.2,0-7.7,3.4-7.7,7.7s3.4,7.7,7.7,7.7c4.2,0,7.7-3.4,7.7-7.7S56.2,24.4,52,24.4z"/>
		<path class="st0" d="M13.1,15.4c0.2,1.5,0.8,2.9,1.7,4.2c0.2,0.2,0.1,0.6-0.1,0.8l-2.2,2.2l1.6,1.6l2.2-2.2
			c0.2-0.2,0.6-0.2,0.8-0.1c1.2,0.9,2.7,1.5,4.2,1.7c0.3,0.1,0.5,0.3,0.5,0.6v3.1h2.3v-3.1c0-0.3,0.2-0.6,0.5-0.6
			c1.5-0.3,2.9-0.8,4.2-1.7c0.2-0.2,0.6-0.1,0.8,0.1l2.2,2.2l1.6-1.6l-2.2-2.2c-0.2-0.2-0.2-0.6-0.1-0.8c0.9-1.2,1.5-2.7,1.7-4.2
			c0.1-0.3,0.3-0.5,0.6-0.5h3.1v-2.3h-3.1c-0.3,0-0.6-0.2-0.6-0.5c-0.3-1.5-0.8-2.9-1.7-4.2c-0.2-0.2-0.1-0.6,0.1-0.8l2.2-2.2
			l-1.6-1.6l-2.2,2.2c-0.2,0.2-0.6,0.2-0.8,0.1c-1.2-0.9-2.7-1.5-4.2-1.7c-0.3-0.1-0.5-0.3-0.5-0.6V0h-2.3v3.1
			c0,0.3-0.2,0.6-0.5,0.6c-1.5,0.3-2.9,0.9-4.2,1.7c-0.2,0.2-0.6,0.1-0.8-0.1l-2.2-2.2l-1.6,1.6L14.7,7C15,7.2,15,7.6,14.8,7.8
			c-0.9,1.3-1.5,2.7-1.7,4.2c0,0.3-0.3,0.5-0.6,0.5H9.4v2.3h3.1C12.8,14.9,13,15.1,13.1,15.4z M23.1,6.6c3.9,0,7.1,3.2,7.1,7.1
			c0,3.9-3.2,7.1-7.1,7.1c-3.9,0-7.1-3.2-7.1-7.1C16,9.8,19.2,6.6,23.1,6.6z"/>
		<path class="st0" d="M35.4,50.6c-0.4-2.2-1.3-4.4-2.6-6.3c-0.2-0.2-0.1-0.6,0.1-0.8l3.4-3.4l-2.8-2.8L30,40.7
			c-0.2,0.2-0.6,0.2-0.8,0.1c-1.9-1.3-4-2.2-6.3-2.6c-0.3-0.1-0.5-0.3-0.5-0.6v-4.9h-4v4.9c0,0.3-0.2,0.6-0.5,0.6
			c-2.3,0.4-4.4,1.3-6.3,2.6c-0.2,0.2-0.6,0.1-0.8-0.1l-3.4-3.4l-2.8,2.8L8,43.6c0.2,0.2,0.2,0.6,0.1,0.8c-1.3,1.9-2.2,4-2.6,6.3
			c-0.1,0.3-0.3,0.5-0.6,0.5H0v4h4.9c0.3,0,0.6,0.2,0.6,0.5c0.4,2.2,1.3,4.4,2.6,6.3c0.2,0.2,0.1,0.6-0.1,0.8l-3.4,3.4L7.4,69
			l3.4-3.4c0.2-0.2,0.6-0.2,0.8-0.1c1.9,1.3,4,2.2,6.3,2.6c0.3,0.1,0.5,0.3,0.5,0.6v4.9h4v-4.9c0-0.3,0.2-0.6,0.5-0.6
			c2.3-0.4,4.4-1.2,6.3-2.6c0.2-0.2,0.6-0.1,0.8,0.1l3.4,3.4l2.8-2.8l-3.4-3.4c-0.2-0.2-0.2-0.6-0.1-0.8c1.3-1.8,2.2-4,2.6-6.3
			c0.1-0.3,0.3-0.5,0.6-0.5h4.9v-4H36C35.7,51.2,35.4,50.9,35.4,50.6z M20.4,63.3c-5.6,0-10.1-4.5-10.1-10.1s4.5-10.1,10.1-10.1
			c5.6,0,10.1,4.5,10.1,10.1S26,63.3,20.4,63.3z"/>
		<path class="st0" d="M65,29.9c-0.3-2-1.1-3.8-2.3-5.4c-0.2-0.2-0.1-0.6,0.1-0.8l3-3l-2.4-2.4l-3,3c-0.2,0.2-0.6,0.2-0.8,0.1
			c-1.6-1.2-3.5-1.9-5.4-2.3c-0.3-0.1-0.5-0.3-0.5-0.6v-4.2h-3.4v4.2c0,0.3-0.2,0.6-0.5,0.6c-1.9,0.3-3.8,1.1-5.4,2.3
			c-0.2,0.2-0.6,0.1-0.8-0.1l-3-3l-2.4,2.4l3,3c0.2,0.2,0.2,0.6,0.1,0.8c-1.2,1.6-1.9,3.5-2.2,5.4c-0.1,0.3-0.3,0.5-0.6,0.5h-4.2
			v3.4h4.2c0.3,0,0.6,0.2,0.6,0.5c0.3,2,1.1,3.8,2.2,5.4c0.2,0.2,0.1,0.6-0.1,0.8l-3,3l2.4,2.4l3-2.9c0.2-0.2,0.6-0.2,0.8-0.1
			c1.6,1.1,3.5,1.9,5.4,2.2c0.3,0.1,0.5,0.3,0.5,0.6v4.2h3.4v-4.2c0-0.3,0.2-0.6,0.5-0.6c2-0.3,3.8-1.1,5.4-2.2
			c0.2-0.2,0.6-0.1,0.8,0.1l3,2.9l2.4-2.4l-3-3c-0.2-0.2-0.2-0.6-0.1-0.8c1.1-1.6,1.9-3.5,2.3-5.5c0.1-0.3,0.3-0.5,0.6-0.5h4.2v-3.4
			h-4.2C65.3,30.4,65.1,30.2,65,29.9z M52,41c-4.9,0-8.9-4-8.9-8.9s4-8.9,8.9-8.9c4.9,0,8.9,4,8.9,8.9S56.9,41,52,41z"/>
		<path class="st0" d="M20.4,44.3c-4.9,0-8.8,4-8.8,8.8s4,8.8,8.8,8.8c4.9,0,8.9-4,8.9-8.8S25.3,44.3,20.4,44.3z"/>
		<path class="st0" d="M23.1,19.5c3.2,0,5.8-2.6,5.8-5.8c0-3.2-2.6-5.8-5.8-5.8c-3.2,0-5.8,2.6-5.8,5.8
			C17.2,16.9,19.9,19.5,23.1,19.5z"/>
	</g>
</g>
</svg>
