<!-- Generator: Adobe Illustrator 23.0.3, SVG Export Plug-In  -->
<svg version="1.1" xmlns="http://www.w3.org/2000/svg" xmlns:xlink="http://www.w3.org/1999/xlink" x="0px" y="0px" width="77.1px"
	 height="75.8px" viewBox="0 0 77.1 75.8" style="enable-background:new 0 0 77.1 75.8;" xml:space="preserve">
<style type="text/css">
	.st0{fill:#FFFFFF;}
</style>
<defs>
</defs>
<g>
	<path class="st0" d="M30.2,46.2c-0.2-0.5-0.7-0.7-1.2-0.7H6.3c-0.5,0-1,0.3-1.2,0.8L0.1,60.2c-0.2,0.5,0,1.2,0.5,1.5
		C0.8,61.9,1,62,1.3,62.1v12.5c0,0.7,0.6,1.3,1.3,1.3c0,0,0,0,0,0h31.6c0.7,0,1.3-0.6,1.3-1.3c0,0,0,0,0,0V62
		c0.1-0.1,0.2-0.1,0.3-0.1c0.5-0.2,0.9-0.7,0.9-1.2c0-0.3-0.1-0.5-0.2-0.7L30.2,46.2z M33.7,60c-2.6,1-4.7,1-6,0l-2.2-12h2.7
		L33.7,60z M16.4,60c-0.8,0.5-1.8,0.7-2.8,0.7c-1.2,0-2.3-0.3-3.4-0.7L12.4,48h4V60z M19,48h4l2.2,12.1c-1,0.5-2.2,0.8-3.4,0.8
		c-1,0.1-2-0.2-2.8-0.8V48z M7.2,48h2.7L7.7,59.9c-0.8,0.4-1.6,0.7-2.5,0.7c-0.8,0-1.6-0.2-2.4-0.5L7.2,48z M21.5,73.3H19v-5.1h2.5
		V73.3z M16.4,73.3h-2.5v-5.1h2.5V73.3z M32.9,73.3H24V67c0-0.7-0.6-1.3-1.3-1.3c0,0,0,0,0,0H12.6c-0.7,0-1.3,0.6-1.3,1.3
		c0,0,0,0,0,0v6.3H3.8V62.9C4.3,63,4.7,63,5.2,63.1c1.3,0,2.6-0.3,3.7-0.9c1.5,0.7,3.1,1.1,4.8,1.1c1.4,0,2.7-0.3,3.9-0.9
		c1.3,0.8,2.7,1.3,4.3,1.2c1.6,0,3.3-0.4,4.7-1.2c1.9,1.1,4.2,1.4,6.3,0.7V73.3z"/>
	<path class="st0" d="M75.8,44.2h-6.1c-0.7,0-1.3,0.6-1.3,1.3c0,0,0,0,0,0v8.6l-7.8-4.9c-0.6-0.4-1.4-0.2-1.7,0.4
		c-0.1,0.2-0.2,0.4-0.2,0.7v3.8l-7.8-4.9c-0.6-0.4-1.4-0.2-1.7,0.4c-0.1,0.2-0.2,0.4-0.2,0.7v3.8l-7.8-4.9c-0.6-0.4-1.4-0.2-1.7,0.4
		c-0.1,0.2-0.2,0.4-0.2,0.7v24.2c0,0.7,0.6,1.3,1.3,1.3c0,0,0,0,0,0h35.4c0.7,0,1.3-0.6,1.3-1.3c0,0,0,0,0,0V45.5
		C77.1,44.8,76.5,44.2,75.8,44.2C75.8,44.2,75.8,44.2,75.8,44.2z M74.6,73.3H41.7V52.6l7.8,4.9c0.6,0.4,1.4,0.2,1.7-0.4
		c0.1-0.2,0.2-0.4,0.2-0.7v-3.8l7.8,4.9c0.6,0.4,1.4,0.2,1.7-0.4c0.1-0.2,0.2-0.4,0.2-0.7v-3.8l7.8,4.9c0.6,0.4,1.4,0.2,1.7-0.4
		c0.1-0.2,0.2-0.4,0.2-0.7v-9.6h3.6V73.3z"/>
	<path class="st0" d="M48,61.9c-2.1,0-3.8,1.7-3.8,3.8c0,2.1,1.7,3.8,3.8,3.8s3.8-1.7,3.8-3.8C51.8,63.6,50.1,61.9,48,61.9z M48,67
		c-0.7,0-1.3-0.6-1.3-1.3c0-0.7,0.6-1.3,1.3-1.3c0.7,0,1.3,0.6,1.3,1.3C49.3,66.4,48.7,67,48,67z"/>
	<path class="st0" d="M58.1,61.9c-2.1,0-3.8,1.7-3.8,3.8c0,2.1,1.7,3.8,3.8,3.8s3.8-1.7,3.8-3.8C61.9,63.6,60.2,61.9,58.1,61.9z
		 M58.1,67c-0.7,0-1.3-0.6-1.3-1.3c0-0.7,0.6-1.3,1.3-1.3s1.3,0.6,1.3,1.3C59.4,66.4,58.8,67,58.1,67z"/>
	<path class="st0" d="M68.2,61.9c-2.1,0-3.8,1.7-3.8,3.8c0,2.1,1.7,3.8,3.8,3.8s3.8-1.7,3.8-3.8C72,63.6,70.3,61.9,68.2,61.9z
		 M68.2,67c-0.7,0-1.3-0.6-1.3-1.3c0-0.7,0.6-1.3,1.3-1.3s1.3,0.6,1.3,1.3C69.5,66.4,68.9,67,68.2,67z"/>
	<path class="st0" d="M16.4,44.2H19v-3.8h40.4v3.8h2.5v-5.1c0-0.7-0.6-1.3-1.3-1.3c0,0,0,0,0,0H41.1v-3.8h-2.5v3.8H17.7
		c-0.7,0-1.3,0.6-1.3,1.3c0,0,0,0,0,0V44.2z"/>
	<path class="st0" d="M45.5,0H30.3c-0.7,0-1.3,0.6-1.3,1.3c0,0,0,0,0,0v13.9h-6.3c-0.7,0-1.3,0.6-1.3,1.3c0,0,0,0,0,0v13.9h-5.1v2.5
		h45.5v-2.5h-3.8V8.8c0-0.7-0.6-1.3-1.3-1.3c0,0,0,0,0,0H46.8V1.3C46.8,0.6,46.2,0,45.5,0C45.5,0,45.5,0,45.5,0z M24,17.7h5.1v12.6
		H24V17.7z M31.6,2.5h12.6v27.8H43v-4.6c0-0.3-0.1-0.7-0.4-0.9c-2.4-2.6-6.4-2.7-9-0.3c-0.1,0.1-0.2,0.2-0.3,0.3
		c-0.2,0.2-0.4,0.6-0.4,0.9v4.6h-1.3V2.5z M40.4,30.3h-5.1v-4.1c1.4-1.3,3.6-1.3,5.1,0V30.3z M55.6,10.1v20.2h-8.8V10.1H55.6z"/>
	<path class="st0" d="M35.2,21.5h5.2c0.7,0,1.3-0.6,1.3-1.3c0,0,0,0,0,0v-5.1c0-0.7-0.6-1.3-1.3-1.3c0,0,0,0,0,0h-5.2
		c-0.7,0-1.3,0.6-1.3,1.3c0,0,0,0,0,0v5.1C33.9,20.9,34.5,21.5,35.2,21.5C35.2,21.5,35.2,21.5,35.2,21.5z M36.5,16.4h2.7V19h-2.7
		V16.4z"/>
	<path class="st0" d="M35.4,12.6h5.1c0.7,0,1.3-0.6,1.3-1.3c0,0,0,0,0,0V6.3c0-0.7-0.6-1.3-1.3-1.3c0,0,0,0,0,0h-5.1
		c-0.7,0-1.3,0.6-1.3,1.3c0,0,0,0,0,0v5.1C34.1,12.1,34.7,12.6,35.4,12.6C35.4,12.6,35.4,12.6,35.4,12.6z M36.7,7.6h2.5v2.5h-2.5
		V7.6z"/>
	<path class="st0" d="M49.4,19h3.8c0.7,0,1.3-0.6,1.3-1.3c0,0,0,0,0,0v-3.8c0-0.7-0.6-1.3-1.3-1.3c0,0,0,0,0,0h-3.8
		c-0.7,0-1.3,0.6-1.3,1.3c0,0,0,0,0,0v3.8C48.2,18.4,48.7,19,49.4,19C49.4,19,49.4,19,49.4,19z M50.7,15.2h1.3v1.3h-1.3V15.2z"/>
	<path class="st0" d="M49.4,27.8h3.8c0.7,0,1.3-0.6,1.3-1.3c0,0,0,0,0,0v-3.8c0-0.7-0.6-1.3-1.3-1.3c0,0,0,0,0,0h-3.8
		c-0.7,0-1.3,0.6-1.3,1.3c0,0,0,0,0,0v3.8C48.2,27.2,48.7,27.8,49.4,27.8C49.4,27.8,49.4,27.8,49.4,27.8z M50.7,24h1.3v1.3h-1.3V24z
		"/>
</g>
</svg>
