<svg version="1.1" xmlns="http://www.w3.org/2000/svg" xmlns:xlink="http://www.w3.org/1999/xlink" x="0px" y="0px" width="65.1px"
	 height="65.2px" viewBox="0 0 65.1 65.2" style="enable-background:new 0 0 65.1 65.2;" xml:space="preserve">
<style type="text/css">
	.st0{fill-rule:evenodd;clip-rule:evenodd;fill:#FFFFFF;}
</style>
<defs>
</defs>
<path class="st0" d="M32.6,65.2c-1.8,0-3.6-0.2-5.3-0.5l1.5-3.7c1.3,0.2,2.5,0.3,3.9,0.3c1.8,0,3.6-0.2,5.3-0.5L33.5,56h-6.2h-1.3
	h-1.3v-3.9h-4.3c-0.5,0.8-1.3,1.3-2.2,1.3c-1.4,0-2.6-1.2-2.6-2.6s1.2-2.6,2.6-2.6c1,0,1.8,0.5,2.2,1.3h4.3v-1.3v-2.6h2.6h13v0.6
	l3.2,3.5c0.2-0.1,0.5-0.1,0.7-0.1c1.4,0,2.6,1.2,2.6,2.6c0,1.4-1.2,2.6-2.6,2.6s-2.6-1.2-2.6-2.6c0-0.2,0-0.4,0.1-0.6l-3-3.3H27.4
	v5.2h7.8V54l5.6,6.1c4.8-1.4,9-4.1,12.4-7.5l-4-4.3h-1V35.9l-3.9-4.3c-1.1,0.9-2.2,2-3.4,2.9c-0.2,0.2-0.6,0.6-0.6,0.6l-1.2,0v0
	h-5.6c-0.5,0.8-1.3,1.3-2.2,1.3c-1.4,0-2.6-1.2-2.6-2.6c0-1.4,1.2-2.6,2.6-2.6c1,0,1.8,0.5,2.2,1.3h5.6v0.3l7.8-7V15.6h-5.2v5.6
	c0.8,0.5,1.3,1.3,1.3,2.2c0,1.4-1.2,2.6-2.6,2.6c-1.4,0-2.6-1.2-2.6-2.6c0-1,0.5-1.8,1.3-2.2v-5.6v-1.3V13h7.8V7.8
	c-1-0.6-2.1-1.2-3.2-1.6c-0.4,0.2-0.9,0.3-1.4,0.3c-1.8,0-3.3-1.5-3.3-3.3c0-1.8,1.5-3.3,3.3-3.3c1.6,0,3,1.2,3.2,2.7
	c11.5,5,19.6,16.5,19.6,29.8C65.1,50.6,50.6,65.2,32.6,65.2z M54.7,33.9c-1.4,0-2.6-1.2-2.6-2.6c0-1,0.5-1.8,1.3-2.2V18.2h1.3H56
	h1.4c-2-3.4-4.7-6.4-7.9-8.7v19.2h-1.8c-0.4,0.4-0.9,0.8-1.4,1.2L51,35l-0.2,0.1h0v3.9h1.7c0.5-0.8,1.3-1.3,2.2-1.3
	c1.4,0,2.6,1.2,2.6,2.6c0,1.4-1.2,2.6-2.6,2.6c-1,0-1.8-0.5-2.2-1.3h-1.7v4.5l4.1,4.4c4-4.9,6.4-11.2,6.4-18c0-4.2-0.9-8.1-2.5-11.7
	H56V29c0.8,0.5,1.3,1.3,1.3,2.2C57.3,32.7,56.2,33.9,54.7,33.9z M32.6,3.9C31.7,3.9,30.8,4,30,4v8.2l3.2,3.5
	c0.2-0.1,0.5-0.1,0.7-0.1c1.4,0,2.6,1.2,2.6,2.6c0,1.4-1.2,2.6-2.6,2.6c-1.4,0-2.6-1.2-2.6-2.6c0-0.2,0-0.4,0.1-0.6l-1.8-2h-1.4
	l-4.6,4l3.5,3.8h0.3v0.3l0,0l0,0v16.6h13.4c0.5-0.8,1.3-1.3,2.2-1.3c1.4,0,2.6,1.2,2.6,2.6c0,1.4-1.2,2.6-2.6,2.6
	c-1,0-1.8-0.5-2.2-1.3H27.4h-1.3h-1.3V24.8l-12-12.9c-0.7,0.7-1.4,1.4-2.1,2.2l11.1,12h0.3v0.3l0,0l0,0v15.3v2.6h-2.6H13h-1.3h-1.3
	v-6.5h-6c2,10.8,10,19.4,20.4,22.4l-1.5,3.7C9.9,59.8,0,47.4,0,32.6C0,14.6,14.6,0,32.6,0c1.8,0,3.5,0.2,5.2,0.5l-1.5,3.7
	C35.1,4,33.8,3.9,32.6,3.9z M9.1,16.1c-3.3,4.7-5.2,10.3-5.2,16.4c0,0.9,0,1.7,0.1,2.6h9v1.3v1.3v3.9h6.5V27.4L15.5,23l-3.8,5.2
	c0,0.1,0,0.3,0,0.4c0,1.4-1.2,2.6-2.6,2.6s-2.6-1.2-2.6-2.6c0-1.4,1.2-2.6,2.6-2.6c0.3,0,0.6,0.1,0.8,0.1l3.7-5.2L9.1,16.1z
	 M27.4,4.4c-4.7,0.9-9,2.9-12.6,5.7l7,7.6l5.6-4.9V4.4z"/>
</svg>
