<svg version="1.1" xmlns="http://www.w3.org/2000/svg" xmlns:xlink="http://www.w3.org/1999/xlink" x="0px" y="0px" width="78.8px"
	 height="78.8px" viewBox="0 0 78.8 78.8" style="enable-background:new 0 0 78.8 78.8;" xml:space="preserve">
<style type="text/css">
	.st0{fill:#FFFFFF;}
</style>
<defs>
</defs>
<g>
	<rect x="10.2" y="71.1" class="st0" width="2.5" height="2.5"/>
	<rect x="15.2" y="71.1" class="st0" width="2.5" height="2.5"/>
	<path class="st0" d="M58.4,0C46.8,0,38.1,3.8,38.1,8.9v8.9H8.9c-3.5,0-6.4,2.8-6.4,6.4V66H0v6.4c0,3.5,2.8,6.4,6.4,6.4h58.4
		c3.5,0,6.4-2.8,6.4-6.4V66h-2.5V47.3c5.8-1.2,10.2-3.4,10.2-6.7V8.9C78.8,3.8,70,0,58.4,0z M58.4,2.5c10.5,0,17.8,3.3,17.8,6.4
		c0,1.6-2.1,3.3-5.7,4.6c0.4-0.6,0.6-1.3,0.6-2c0-3.6-5.5-6.4-12.7-6.4s-12.7,2.7-12.7,6.4c0,0.7,0.2,1.4,0.6,2
		c-3.6-1.2-5.7-2.9-5.7-4.6C40.6,5.9,47.9,2.5,58.4,2.5z M48.3,11.4c0-1.6,4-3.8,10.2-3.8s10.2,2.3,10.2,3.8s-4,3.8-10.2,3.8
		S48.3,13,48.3,11.4z M58.4,48.3c0.8,0,1.7,0,2.5-0.1V61H10.2V25.4h27.9v15.2C38.1,45.6,48.3,48.3,58.4,48.3z M68.6,72.4
		c0,2.1-1.7,3.8-3.8,3.8H6.4c-2.1,0-3.8-1.7-3.8-3.8v-3.8h21.7c0.6,2.9,3.2,5.1,6.2,5.1h10.2c3.1,0,5.6-2.2,6.2-5.1h21.7V72.4z
		 M26.9,68.6h17.3c-0.5,1.5-1.9,2.5-3.6,2.5H30.5C28.8,71.1,27.4,70.1,26.9,68.6z M66,66h-61V24.1c0-2.1,1.7-3.8,3.8-3.8h29.2v2.5
		H10.2c-1.4,0-2.5,1.1-2.5,2.5V61c0,1.4,1.1,2.5,2.5,2.5H61c1.4,0,2.5-1.1,2.5-2.5V48c0.9-0.1,1.7-0.2,2.5-0.3V66z M58.4,45.7
		c-10.9,0-17.8-3-17.8-5.1v-6.3c3.7,2.5,10.7,3.7,17.8,3.7s14.1-1.3,17.8-3.7v6.3C76.2,42.7,69.3,45.7,58.4,45.7z M58.4,35.6
		c-10.9,0-17.8-3-17.8-5.1v-6.3c3.7,2.5,10.7,3.7,17.8,3.7s14.1-1.3,17.8-3.7v6.3C76.2,32.6,69.3,35.6,58.4,35.6z M58.4,25.4
		c-10.9,0-17.8-3-17.8-5.1v-7c3.4,2.7,9.9,4.5,17.8,4.5s14.4-1.8,17.8-4.5v7C76.2,22.4,69.3,25.4,58.4,25.4z"/>
	<rect x="45.7" y="19.1" class="st0" width="2.5" height="2.5"/>
	<rect x="50.8" y="20.3" class="st0" width="2.5" height="2.5"/>
	<rect x="45.7" y="39.4" class="st0" width="2.5" height="2.5"/>
	<rect x="50.8" y="40.6" class="st0" width="2.5" height="2.5"/>
	<rect x="68.6" y="29.2" class="st0" width="2.5" height="2.5"/>
	<rect x="63.5" y="30.5" class="st0" width="2.5" height="2.5"/>
	<path class="st0" d="M27.9,33h-5.1v10.2h-2.5v-5.1h-7.6v20.3h22.9V27.9h-7.6V33z M17.8,55.9h-2.5V40.6h2.5V55.9z M20.3,45.7h2.5
		v10.2h-2.5V45.7z M25.4,55.9V35.6h2.5v20.3H25.4z M30.5,30.5H33v25.4h-2.5V30.5z"/>
	<rect x="38.1" y="50.8" class="st0" width="20.3" height="2.5"/>
	<rect x="38.1" y="55.9" class="st0" width="12.7" height="2.5"/>
	<rect x="53.3" y="55.9" class="st0" width="5.1" height="2.5"/>
</g>
</svg>