<svg xmlns="http://www.w3.org/2000/svg" viewBox="0 0 22.4 22.4"><defs><style>.cls-1{fill:#fff;}</style></defs><title>facebook_1</title><g id="Layer_2" data-name="Layer 2"><g id="Layer_6" data-name="Layer 6"><path id="White" class="cls-1" d="M21.16,0H1.24A1.23,1.23,0,0,0,0,1.24V21.16A1.23,1.23,0,0,0,1.24,22.4H12V13.73H9.05V10.34H12V7.85C12,5,13.73,3.38,16.31,3.38a23.6,23.6,0,0,1,2.61.14v3H17.13c-1.4,0-1.67.67-1.67,1.65v2.15H18.8l-.43,3.39H15.46V22.4h5.7a1.23,1.23,0,0,0,1.24-1.24V1.24A1.23,1.23,0,0,0,21.16,0Z"/></g></g></svg>