<svg xmlns="http://www.w3.org/2000/svg" viewBox="0 0 69.6 69.6"><defs><style>.cls-1{fill:#195B87;}</style></defs><title>finances-svg</title><g id="Layer_2" data-name="Layer 2"><g id="Layer_6" data-name="Layer 6"><path class="cls-1" d="M44.91,58.38H42.66a2.24,2.24,0,0,0-2.24,2.24v2.25a2.24,2.24,0,0,0,2.24,2.24h2.25a2.24,2.24,0,0,0,2.24-2.24V60.62A2.24,2.24,0,0,0,44.91,58.38Zm0,4.49H42.66V60.62h2.25Z"/><path class="cls-1" d="M53.89,58.38H51.64a2.24,2.24,0,0,0-2.24,2.24v2.25a2.24,2.24,0,0,0,2.24,2.24h2.25a2.24,2.24,0,0,0,2.24-2.24V60.62A2.24,2.24,0,0,0,53.89,58.38Zm0,4.49H51.64V60.62h2.25Z"/><path class="cls-1" d="M62.87,58.38H60.62a2.24,2.24,0,0,0-2.24,2.24v2.25a2.24,2.24,0,0,0,2.24,2.24h2.25a2.24,2.24,0,0,0,2.24-2.24V60.62A2.24,2.24,0,0,0,62.87,58.38Zm0,4.49H60.62V60.62h2.25Z"/><path class="cls-1" d="M44.91,49.4H42.66a2.24,2.24,0,0,0-2.24,2.24v2.25a2.24,2.24,0,0,0,2.24,2.24h2.25a2.24,2.24,0,0,0,2.24-2.24V51.64A2.24,2.24,0,0,0,44.91,49.4Zm0,4.49H42.66V51.64h2.25Z"/><path class="cls-1" d="M53.89,49.4H51.64a2.24,2.24,0,0,0-2.24,2.24v2.25a2.24,2.24,0,0,0,2.24,2.24h2.25a2.24,2.24,0,0,0,2.24-2.24V51.64A2.24,2.24,0,0,0,53.89,49.4Zm0,4.49H51.64V51.64h2.25Z"/><path class="cls-1" d="M62.87,49.4H60.62a2.24,2.24,0,0,0-2.24,2.24v2.25a2.24,2.24,0,0,0,2.24,2.24h2.25a2.24,2.24,0,0,0,2.24-2.24V51.64A2.24,2.24,0,0,0,62.87,49.4Zm0,4.49H60.62V51.64h2.25Z"/><path class="cls-1" d="M44.91,40.42H42.66a2.24,2.24,0,0,0-2.24,2.24v2.25a2.24,2.24,0,0,0,2.24,2.24h2.25a2.25,2.25,0,0,0,2.24-2.24V42.66A2.24,2.24,0,0,0,44.91,40.42Zm0,4.49H42.66V42.66h2.25Z"/><path class="cls-1" d="M53.89,40.42H51.64a2.24,2.24,0,0,0-2.24,2.24v2.25a2.24,2.24,0,0,0,2.24,2.24h2.25a2.24,2.24,0,0,0,2.24-2.24V42.66A2.24,2.24,0,0,0,53.89,40.42Zm0,4.49H51.64V42.66h2.25Z"/><path class="cls-1" d="M62.87,40.42H60.62a2.24,2.24,0,0,0-2.24,2.24v2.25a2.24,2.24,0,0,0,2.24,2.24h2.25a2.24,2.24,0,0,0,2.24-2.24V42.66A2.24,2.24,0,0,0,62.87,40.42Zm0,4.49H60.62V42.66h2.25Z"/><path class="cls-1" d="M64,22.45H49.4V5.61A5.62,5.62,0,0,0,43.78,0H5.61A5.62,5.62,0,0,0,0,5.61V24.7H9V52.76a5.62,5.62,0,0,0,5.61,5.62H35.92V64a5.62,5.62,0,0,0,5.62,5.61H64A5.61,5.61,0,0,0,69.6,64V28.07A5.62,5.62,0,0,0,64,22.45Zm-55,0H2.25V5.61A3.37,3.37,0,0,1,9,5.61ZM19.06,56.13a5.57,5.57,0,0,0,1.15-3.37V49.4H35.92v6.73ZM35.92,28.07V47.15H18v5.61a3.37,3.37,0,1,1-6.73,0V5.61a5.49,5.49,0,0,0-1.16-3.36H43.78a3.37,3.37,0,0,1,3.37,3.36V22.45H41.54A5.62,5.62,0,0,0,35.92,28.07ZM67.36,64A3.37,3.37,0,0,1,64,67.36H41.54A3.37,3.37,0,0,1,38.17,64V28.07a3.37,3.37,0,0,1,3.37-3.37H64a3.37,3.37,0,0,1,3.37,3.37Z"/><path class="cls-1" d="M40.42,38.17H65.11V26.94H40.42Zm2.24-9H62.87v6.73H42.66Z"/><path class="cls-1" d="M29.19,4.49H28.07V16.84H40.42V15.72A11.25,11.25,0,0,0,29.19,4.49Zm1.12,10.1V6.81a9,9,0,0,1,7.79,7.78Z"/><path class="cls-1" d="M25.82,9H24.7A11.23,11.23,0,1,0,35.92,20.21V19.08H25.82ZM23.58,11.3v8.44l-6,6a9,9,0,0,1,6-14.41Zm10,10a9,9,0,0,1-8.91,7.86,8.9,8.9,0,0,1-5.5-1.9l6-6Z"/><rect class="cls-1" x="42.66" y="4.49" width="2.25" height="2.25"/><rect class="cls-1" x="42.66" y="8.98" width="2.25" height="2.25"/><rect class="cls-1" x="42.66" y="13.47" width="2.25" height="2.25"/><rect class="cls-1" x="13.47" y="33.68" width="20.21" height="2.25"/><rect class="cls-1" x="13.47" y="38.17" width="20.21" height="2.25"/><rect class="cls-1" x="31.43" y="42.66" width="2.25" height="2.25"/><rect class="cls-1" x="26.94" y="42.66" width="2.25" height="2.25"/><rect class="cls-1" x="22.45" y="42.66" width="2.25" height="2.25"/><rect class="cls-1" x="13.47" y="42.66" width="6.74" height="2.25"/><rect class="cls-1" x="4.49" y="17.96" width="2.25" height="2.25"/><rect class="cls-1" x="4.49" y="13.47" width="2.25" height="2.25"/><rect class="cls-1" x="4.49" y="8.98" width="2.25" height="2.25"/></g></g></svg>