<svg version="1.1" xmlns="http://www.w3.org/2000/svg" xmlns:xlink="http://www.w3.org/1999/xlink" x="0px" y="0px" width="62.5px"
	 height="67.1px" viewBox="0 0 62.5 67.1" style="enable-background:new 0 0 62.5 67.1;" xml:space="preserve">
<style type="text/css">
	.st0{fill:#FFFFFF;}
</style>
<defs>
</defs>
<g>
	<path class="st0" d="M9.8,16.5h1.7c0.6,0,1.2,0.3,1.6,0.7c0.4,0.5,0.6,1.1,0.6,1.7c-0.1,1.1-1.1,2-2.3,2H9c-0.6,0-1.2-0.5-1.3-1.1
		C7.6,19.3,7.1,19,6.7,19H4.1c-0.3,0-0.5,0.1-0.7,0.3c-0.1,0.2-0.3,0.4-0.2,0.7c0.3,2.8,2.4,4.9,5.1,5.2v2.3c0,0.5,0.4,0.9,0.9,0.9
		h2.6c0.5,0,0.9-0.4,0.9-0.9v-2.3c2.9-0.6,5.1-3,5.4-5.9c0.2-1.9-0.4-3.7-1.7-5.2s-3-2.2-4.9-2.2h-2c-0.6,0-1.2-0.3-1.6-0.7
		c-0.4-0.5-0.6-1.1-0.6-1.7c0.1-1.1,1.1-2,2.3-2h2.3c0.6,0,1.2,0.5,1.3,1.1c0.1,0.4,0.5,0.7,0.9,0.7h2.6c0.3,0,0.5-0.1,0.7-0.3
		c0.1-0.2,0.3-0.4,0.2-0.7c-0.3-2.8-2.4-4.9-5.1-5.2V0.9c0-0.5-0.4-0.9-0.9-0.9H9.1C8.6,0,8.2,0.4,8.2,0.9v2.3
		C4.9,3.9,2.5,7,2.8,10.5C3.2,13.9,6.2,16.5,9.8,16.5z"/>
	<path class="st0" d="M61.2,23.3H50.9c-0.8,0-1.3,0.6-1.3,1.3v41.1c0,0.8,0.6,1.3,1.3,1.3h10.3c0.8,0,1.3-0.6,1.3-1.3V24.7
		C62.5,23.9,61.9,23.3,61.2,23.3z"/>
	<path class="st0" d="M44.7,31.5H34.4c-0.8,0-1.3,0.6-1.3,1.3v32.9c0,0.8,0.6,1.3,1.3,1.3h10.3c0.8,0,1.3-0.6,1.3-1.3V32.9
		C46,32.2,45.4,31.5,44.7,31.5z"/>
	<path class="st0" d="M28.2,43.9H18c-0.8,0-1.3,0.6-1.3,1.3v20.5c0,0.8,0.6,1.3,1.3,1.3h10.3c0.8,0,1.3-0.6,1.3-1.3V45.2
		C29.6,44.5,28.9,43.9,28.2,43.9z"/>
	<path class="st0" d="M11.7,54.5H1.5c-0.8,0-1.3,0.6-1.3,1.3v9.9c0,0.8,0.6,1.3,1.3,1.3h10.3c0.8,0,1.3-0.6,1.3-1.3v-9.9
		C13.1,55.1,12.4,54.5,11.7,54.5z"/>
	<path class="st0" d="M41.7,25.6l14.4-14.5v3.1c0,1.2,0.9,2.1,2.1,2.1s2.1-0.9,2.1-2.1V6.1c0-1.2-0.9-2.1-2.1-2.1h-8.2
		c-1.2,0-2.1,0.9-2.1,2.1s0.9,2.1,2.1,2.1h3L39.3,22h-9.7c-0.8,0-1.6,0.5-2,1.3l-4.7,11.1h-9.2c-0.8,0-1.6,0.5-2,1.3l-4,9.3H2.1
		C0.9,45,0,45.9,0,47.1s0.9,2.1,2.1,2.1h7.1c0.8,0,1.6-0.5,2-1.3l4-9.3h9.2c0.8,0,1.6-0.5,2-1.3L31,26.2h9.2
		C40.8,26.2,41.4,26,41.7,25.6z"/>
</g>
</svg>
