<svg xmlns="http://www.w3.org/2000/svg" viewBox="0 0 22.4 22.4"><defs><style>.cls-1{fill:#fff;}</style></defs><title>linkedin_1</title><g id="Layer_2" data-name="Layer 2"><g id="Layer_6" data-name="Layer 6"><path class="cls-1" d="M20.74,0H1.65A1.63,1.63,0,0,0,0,1.62V20.78A1.63,1.63,0,0,0,1.65,22.4H20.74a1.63,1.63,0,0,0,1.66-1.62V1.62A1.63,1.63,0,0,0,20.74,0ZM6.64,19.09H3.32V8.4H6.64ZM5,6.94A1.93,1.93,0,1,1,6.91,5,1.93,1.93,0,0,1,5,6.94ZM19.09,19.09H15.77v-5.2c0-1.24,0-2.84-1.73-2.84s-2,1.36-2,2.75v5.29H8.73V8.4h3.18V9.86H12A3.49,3.49,0,0,1,15.1,8.13c3.37,0,4,2.22,4,5.09Z"/></g></g></svg>