<svg version="1.1" xmlns="http://www.w3.org/2000/svg" xmlns:xlink="http://www.w3.org/1999/xlink" x="0px" y="0px" width="86.2px"
	 height="64px" viewBox="0 0 86.2 64" style="enable-background:new 0 0 86.2 64;" xml:space="preserve">
<style type="text/css">
	.st0{fill:#FFFFFF;}
</style>
<defs>
</defs>
<g>
	<path class="st0" d="M4.7,12.5c-0.4,0-0.7,0.3-0.7,0.7v4.7c0,0.4,0.3,0.7,0.7,0.7c0.4,0,0.7-0.3,0.7-0.7v-4.7
		C5.4,12.8,5.1,12.5,4.7,12.5z"/>
	<path class="st0" d="M7.4,12.5c-0.4,0-0.7,0.3-0.7,0.7v4.7c0,0.4,0.3,0.7,0.7,0.7c0.4,0,0.7-0.3,0.7-0.7v-4.7
		C8.1,12.8,7.8,12.5,7.4,12.5z"/>
	<path class="st0" d="M10.1,12.5c-0.4,0-0.7,0.3-0.7,0.7v4.7c0,0.4,0.3,0.7,0.7,0.7c0.4,0,0.7-0.3,0.7-0.7v-4.7
		C10.8,12.8,10.5,12.5,10.1,12.5z"/>
	<path class="st0" d="M12.8,12.5c-0.4,0-0.7,0.3-0.7,0.7v4.7c0,0.4,0.3,0.7,0.7,0.7c0.4,0,0.7-0.3,0.7-0.7v-4.7
		C13.5,12.8,13.2,12.5,12.8,12.5z"/>
	<path class="st0" d="M15.5,12.5c-0.4,0-0.7,0.3-0.7,0.7v4.7c0,0.4,0.3,0.7,0.7,0.7c0.4,0,0.7-0.3,0.7-0.7v-4.7
		C16.2,12.8,15.9,12.5,15.5,12.5z"/>
	<path class="st0" d="M18.2,12.5c-0.4,0-0.7,0.3-0.7,0.7v4.7c0,0.4,0.3,0.7,0.7,0.7c0.4,0,0.7-0.3,0.7-0.7v-4.7
		C18.9,12.8,18.6,12.5,18.2,12.5z"/>
	<path class="st0" d="M12.8,27.4c-0.4,0-0.7,0.3-0.7,0.7v4.7c0,0.4,0.3,0.7,0.7,0.7c0.4,0,0.7-0.3,0.7-0.7v-4.7
		C13.5,27.7,13.2,27.4,12.8,27.4z"/>
	<path class="st0" d="M15.5,27.4c-0.4,0-0.7,0.3-0.7,0.7v4.7c0,0.4,0.3,0.7,0.7,0.7c0.4,0,0.7-0.3,0.7-0.7v-4.7
		C16.2,27.7,15.9,27.4,15.5,27.4z"/>
	<path class="st0" d="M18.2,27.4c-0.4,0-0.7,0.3-0.7,0.7v4.7c0,0.4,0.3,0.7,0.7,0.7c0.4,0,0.7-0.3,0.7-0.7v-4.7
		C18.9,27.7,18.6,27.4,18.2,27.4z"/>
	<path class="st0" d="M20.9,27.4c-0.4,0-0.7,0.3-0.7,0.7v4.7c0,0.4,0.3,0.7,0.7,0.7c0.4,0,0.7-0.3,0.7-0.7v-4.7
		C21.6,27.7,21.3,27.4,20.9,27.4z"/>
	<path class="st0" d="M23.6,27.4c-0.4,0-0.7,0.3-0.7,0.7v4.7c0,0.4,0.3,0.7,0.7,0.7c0.4,0,0.7-0.3,0.7-0.7v-4.7
		C24.3,27.7,23.9,27.4,23.6,27.4z"/>
	<path class="st0" d="M26.3,27.4c-0.4,0-0.7,0.3-0.7,0.7v4.7c0,0.4,0.3,0.7,0.7,0.7c0.4,0,0.7-0.3,0.7-0.7v-4.7
		C26.9,27.7,26.6,27.4,26.3,27.4z"/>
	<path class="st0" d="M22.9,51.2c0-0.4-0.3-0.7-0.7-0.7h-0.7v-1.3h8.8c0.4,0,0.7-0.3,0.7-0.7V36.4c0-0.4-0.3-0.7-0.7-0.7h-0.7V24.3
		c0-0.4-0.3-0.7-0.7-0.7h-6.1v-2c0-0.4-0.3-0.7-0.7-0.7h-0.7V9.4c0-0.4-0.3-0.7-0.7-0.7H2c-0.4,0-0.7,0.3-0.7,0.7v11.5H0.7
		c-0.4,0-0.7,0.3-0.7,0.7v12.1c0,0.4,0.3,0.7,0.7,0.7h8.8v1.3H8.8c-0.4,0-0.7,0.3-0.7,0.7v2.7H2c-0.4,0-0.7,0.3-0.7,0.7v10.8H0.7
		c-0.4,0-0.7,0.3-0.7,0.7v11.5v0.7V64h0.7h21.6h64v-1.3H22.9V51.2z M2.7,10.1h17.5v10.8H2.7V10.1z M1.3,33V22.2h20.2v1.3H10.1
		c-0.4,0-0.7,0.3-0.7,0.7V33H1.3z M10.8,24.9h17.5v10.8H10.8V24.9z M9.4,37.1h20.2v10.8h-8.1v-8.1c0-0.4-0.3-0.7-0.7-0.7H9.4V37.1z
		 M2.7,40.4h17.5v10.1H2.7V40.4z M1.3,62.6V51.9h20.2v10.8H1.3z"/>
	<path class="st0" d="M4.7,43C4.3,43,4,43.3,4,43.7v4.7c0,0.4,0.3,0.7,0.7,0.7c0.4,0,0.7-0.3,0.7-0.7v-4.7C5.4,43.3,5.1,43,4.7,43z"
		/>
	<path class="st0" d="M7.4,43c-0.4,0-0.7,0.3-0.7,0.7v4.7c0,0.4,0.3,0.7,0.7,0.7c0.4,0,0.7-0.3,0.7-0.7v-4.7C8.1,43.3,7.8,43,7.4,43
		z"/>
	<path class="st0" d="M10.1,43c-0.4,0-0.7,0.3-0.7,0.7v4.7c0,0.4,0.3,0.7,0.7,0.7c0.4,0,0.7-0.3,0.7-0.7v-4.7
		C10.8,43.3,10.5,43,10.1,43z"/>
	<path class="st0" d="M12.8,43c-0.4,0-0.7,0.3-0.7,0.7v4.7c0,0.4,0.3,0.7,0.7,0.7c0.4,0,0.7-0.3,0.7-0.7v-4.7
		C13.5,43.3,13.2,43,12.8,43z"/>
	<path class="st0" d="M15.5,43c-0.4,0-0.7,0.3-0.7,0.7v4.7c0,0.4,0.3,0.7,0.7,0.7c0.4,0,0.7-0.3,0.7-0.7v-4.7
		C16.2,43.3,15.9,43,15.5,43z"/>
	<path class="st0" d="M18.2,43c-0.4,0-0.7,0.3-0.7,0.7v4.7c0,0.4,0.3,0.7,0.7,0.7c0.4,0,0.7-0.3,0.7-0.7v-4.7
		C18.9,43.3,18.6,43,18.2,43z"/>
	<path class="st0" d="M35,33h18.9c0.4,0,0.7-0.3,0.7-0.7V20.2c0-0.4-0.3-0.7-0.7-0.7H35c-0.4,0-0.7,0.3-0.7,0.7v12.1
		C34.4,32.7,34.7,33,35,33z M35.7,20.9h17.5v10.8H35.7V20.9z"/>
	<path class="st0" d="M37.7,23.1c-0.4,0-0.7,0.3-0.7,0.7v4.7c0,0.4,0.3,0.7,0.7,0.7c0.4,0,0.7-0.3,0.7-0.7v-4.7
		C38.4,23.4,38.1,23.1,37.7,23.1z"/>
	<path class="st0" d="M40.4,23.1c-0.4,0-0.7,0.3-0.7,0.7v4.7c0,0.4,0.3,0.7,0.7,0.7c0.4,0,0.7-0.3,0.7-0.7v-4.7
		C41.1,23.4,40.8,23.1,40.4,23.1z"/>
	<path class="st0" d="M43.1,23.1c-0.4,0-0.7,0.3-0.7,0.7v4.7c0,0.4,0.3,0.7,0.7,0.7c0.4,0,0.7-0.3,0.7-0.7v-4.7
		C43.8,23.4,43.5,23.1,43.1,23.1z"/>
	<path class="st0" d="M45.8,23.1c-0.4,0-0.7,0.3-0.7,0.7v4.7c0,0.4,0.3,0.7,0.7,0.7c0.4,0,0.7-0.3,0.7-0.7v-4.7
		C46.5,23.4,46.2,23.1,45.8,23.1z"/>
	<path class="st0" d="M48.5,23.1c-0.4,0-0.7,0.3-0.7,0.7v4.7c0,0.4,0.3,0.7,0.7,0.7c0.4,0,0.7-0.3,0.7-0.7v-4.7
		C49.2,23.4,48.9,23.1,48.5,23.1z"/>
	<path class="st0" d="M51.2,23.1c-0.4,0-0.7,0.3-0.7,0.7v4.7c0,0.4,0.3,0.7,0.7,0.7c0.4,0,0.7-0.3,0.7-0.7v-4.7
		C51.9,23.4,51.6,23.1,51.2,23.1z"/>
	<path class="st0" d="M84.2,38.4h-5.4l-1.2-19.9c0.5-0.9,0.9-1.9,0.9-3c0-3.2-2.6-5.7-5.7-5.7c-0.4,0-0.7,0-1.1,0.1L63.3,4
		c-0.3-2.3-2.3-4-4.7-4c-1.5,0-2.8,0.7-3.7,1.8L47.1,2c-0.6-0.8-1.6-1.3-2.7-1.3c-1.9,0-3.4,1.5-3.4,3.4c0,1.7,1.2,3,2.8,3.3v4.3
		h-4.5c-0.3,0-0.5,0.2-0.6,0.4l-2.3,5.7c-0.1,0.3,0,0.7,0.4,0.9c0.1,0,0.2,0,0.3,0c0.3,0,0.5-0.2,0.6-0.4l2.1-5.3h4.1v4.5
		c0,0.4,0.3,0.7,0.7,0.7c0.4,0,0.7-0.3,0.7-0.7V13h4.2l2.1,5.3c0.1,0.3,0.4,0.4,0.6,0.4c0.1,0,0.2,0,0.3,0c0.3-0.1,0.5-0.5,0.4-0.9
		l-2.3-5.7c-0.1-0.3-0.4-0.4-0.6-0.4c0,0,0,0,0,0h-4.6V7.3c0.8-0.2,1.4-0.6,1.9-1.2l7,0.2c0.7,1.8,2.4,3.1,4.4,3.1
		c0.4,0,0.7,0,1.1-0.1l7.4,5.8c0,0.1,0,0.3,0,0.4c0,1.8,0.8,3.4,2.1,4.5l-1.1,18.5H65V31c0-0.4-0.3-0.7-0.7-0.7h-6.2
		c-0.3,0-0.5,0.1-0.6,0.4l-3.7,7.7h-1.9c-1.1,0-2,0.9-2,2v9.4c0,1.1,0.9,2,2,2H53c0.3,1,1.2,1.7,2.2,1.7c1.1,0,2-0.7,2.2-1.7h0.9
		c0.3,1,1.2,1.7,2.2,1.7c1.1,0,2-0.7,2.2-1.7h0.9c0.3,1,1.2,1.7,2.2,1.7c1.1,0,2-0.7,2.2-1.7h0.9c0.3,1,1.2,1.7,2.2,1.7
		c1.1,0,2-0.7,2.2-1.7h0.9c0.3,1,1.2,1.7,2.2,1.7c1.1,0,2-0.7,2.2-1.7h5.2c1.1,0,2-0.9,2-2v-9.4C86.2,39.3,85.3,38.4,84.2,38.4z
		 M44.5,6.1c-1.1,0-2-0.9-2-2s0.9-2,2-2c1.1,0,2,0.9,2,2S45.6,6.1,44.5,6.1z M47.8,4.7c0-0.2,0.1-0.5,0.1-0.7s0-0.5-0.1-0.7l6.4-0.2
		c-0.2,0.5-0.3,1-0.3,1.6c0,0.1,0,0.2,0,0.2L47.8,4.7z M55.2,4.7c0-1.9,1.5-3.4,3.4-3.4c1.9,0,3.4,1.5,3.4,3.4s-1.5,3.4-3.4,3.4
		C56.8,8.1,55.2,6.6,55.2,4.7z M61.1,8.7C62.2,8,63,6.9,63.2,5.6l6.9,4.8c-1.3,0.7-2.3,1.8-2.8,3.2L61.1,8.7z M68.4,15.5
		c0-2.4,2-4.4,4.4-4.4c2.4,0,4.4,2,4.4,4.4s-2,4.4-4.4,4.4C70.3,19.9,68.4,17.9,68.4,15.5z M70.5,20.7c0.7,0.3,1.5,0.5,2.3,0.5
		c1.4,0,2.6-0.5,3.6-1.3l1.1,18.4h-8L70.5,20.7z M58.6,31.7h5.1v6.7h-8.4L58.6,31.7z M55.2,52.2c-0.6,0-1-0.5-1-1c0-0.6,0.5-1,1-1
		c0.6,0,1,0.5,1,1C56.3,51.8,55.8,52.2,55.2,52.2z M60.6,52.2c-0.6,0-1-0.5-1-1c0-0.6,0.5-1,1-1c0.6,0,1,0.5,1,1
		C61.6,51.8,61.2,52.2,60.6,52.2z M66,52.2c-0.6,0-1-0.5-1-1c0-0.6,0.5-1,1-1c0.6,0,1,0.5,1,1C67,51.8,66.6,52.2,66,52.2z
		 M71.4,52.2c-0.6,0-1-0.5-1-1c0-0.6,0.5-1,1-1c0.6,0,1,0.5,1,1C72.4,51.8,72,52.2,71.4,52.2z M76.8,52.2c-0.6,0-1-0.5-1-1
		c0-0.6,0.5-1,1-1c0.6,0,1,0.5,1,1C77.8,51.8,77.4,52.2,76.8,52.2z M84.9,49.9c0,0.4-0.3,0.7-0.7,0.7H79c-0.3-1-1.2-1.7-2.2-1.7
		c-1.1,0-2,0.7-2.2,1.7h-0.9c-0.3-1-1.2-1.7-2.2-1.7c-1.1,0-2,0.7-2.2,1.7h-0.9c-0.3-1-1.2-1.7-2.2-1.7c-1.1,0-2,0.7-2.2,1.7h-0.9
		c-0.3-1-1.2-1.7-2.2-1.7c-1.1,0-2,0.7-2.2,1.7h-0.9c-0.3-1-1.2-1.7-2.2-1.7c-1.1,0-2,0.7-2.2,1.7h-1.1c-0.4,0-0.7-0.3-0.7-0.7v-4
		h19.5c0.4,0,0.7-0.3,0.7-0.7s-0.3-0.7-0.7-0.7H51.2v-4c0-0.4,0.3-0.7,0.7-0.7h2.4h10.1h4.4h9.4h6.1c0.4,0,0.7,0.3,0.7,0.7V49.9z"/>
</g>
</svg>
