<svg version="1.1" xmlns="http://www.w3.org/2000/svg" xmlns:xlink="http://www.w3.org/1999/xlink" x="0px" y="0px" width="75.1px"
	 height="75.1px" viewBox="0 0 75.1 75.1" style="enable-background:new 0 0 75.1 75.1;" xml:space="preserve">
<style type="text/css">
	.st0{fill:#FFFFFF;}
</style>
<defs>
</defs>
<g>
	<g>
		<g>
			<g>
				<path class="st0" d="M37.6,67.6L37.6,67.6c-2.7,0-5.3-0.4-7.9-1c-0.4-0.1-0.6-0.5-0.5-0.8c0.1-0.3,0.4-0.5,0.7-0.5
					c0.1,0,0.1,0,0.2,0c2.4,0.7,5,1,7.5,1c7.7,0,14.9-3,20.3-8.4c5.4-5.4,8.4-12.6,8.4-20.3s-3-14.9-8.4-20.3
					c-3.9-3.9-8.9-6.6-14.2-7.8c0,0,0,0,0,0c-0.3-0.1-0.5-0.3-0.5-0.7c0,0,0-0.1,0-0.1c0.1-0.3,0.3-0.5,0.7-0.5c0,0,0.1,0,0.1,0
					c5.7,1.2,10.8,4,14.9,8.1c2.9,2.9,5.1,6.2,6.6,9.9c0.7,1.8,1.3,3.7,1.6,5.6c0.4,1.9,0.5,3.8,0.5,5.7s-0.2,3.9-0.5,5.7
					c-0.4,1.9-0.9,3.8-1.6,5.6c-1.5,3.7-3.7,7.1-6.6,9.9c-2.9,2.9-6.2,5.1-9.9,6.6c-1.8,0.7-3.7,1.3-5.6,1.7
					C41.4,67.4,39.5,67.6,37.6,67.6z M26.6,65.5c-0.1,0-0.2,0-0.3,0h0c-0.3-0.1-0.5-0.5-0.4-0.9c0.1-0.3,0.4-0.4,0.6-0.4
					c0.1,0,0.2,0,0.3,0c0,0,0,0,0,0c0.4,0.1,0.5,0.5,0.4,0.9C27.1,65.3,26.9,65.5,26.6,65.5z M23.5,64c-0.1,0-0.2,0-0.3-0.1
					c-2.5-1.4-4.8-3.1-6.9-5.2c-2.9-2.9-5.1-6.2-6.6-9.9c-0.7-1.8-1.3-3.7-1.6-5.6c-0.4-1.9-0.5-3.8-0.5-5.7s0.2-3.9,0.5-5.7
					c0.4-1.9,0.9-3.8,1.6-5.6c1.5-3.7,3.7-7.1,6.6-9.9c2.8-2.8,6-5,9.6-6.5c1.7-0.7,3.6-1.3,5.4-1.7c1.8-0.4,3.7-0.6,5.6-0.6
					c0.4,0,0.7,0.3,0.7,0.7c0,0.4-0.3,0.7-0.7,0.7c-7.4,0.2-14.4,3.1-19.7,8.4c-5.4,5.4-8.4,12.6-8.4,20.3s3,14.9,8.4,20.3
					c2,2,4.2,3.6,6.6,4.9c0.2,0.1,0.4,0.4,0.4,0.6c0,0.1,0,0.2-0.1,0.3C24,63.9,23.8,64,23.5,64z M40.4,9C40.3,9,40.3,9,40.4,9
					c-0.2,0-0.4-0.1-0.5-0.2c-0.1-0.1-0.2-0.3-0.2-0.5c0-0.4,0.4-0.7,0.7-0.6c0.4,0,0.7,0.4,0.6,0.7C41,8.8,40.7,9,40.4,9z"/>
			</g>
			<g>
				<path class="st0" d="M40.7,54.4c-0.3,0-0.5-0.2-0.6-0.4l-1.6-3.8c-0.6,0-1.1,0-1.7,0L35.1,54c-0.1,0.3-0.5,0.5-0.8,0.4L32,53.8
					c-0.3-0.1-0.5-0.4-0.5-0.7l0.5-4.1c-0.5-0.2-1-0.5-1.5-0.9l-3.3,2.4c-0.3,0.2-0.7,0.2-0.9-0.1l-1.7-1.7
					c-0.2-0.2-0.3-0.6-0.1-0.9l2.4-3.3c-0.3-0.5-0.6-1-0.8-1.5l-4.1,0.5c-0.3,0-0.6-0.2-0.7-0.5l-0.6-2.3c-0.1-0.3,0.1-0.7,0.4-0.8
					l3.8-1.6c0-0.3,0-0.6,0-0.9c0-0.3,0-0.6,0-0.8l-3.8-1.6c-0.3-0.1-0.5-0.5-0.4-0.8l0.6-2.3c0.1-0.3,0.4-0.5,0.7-0.5l4.1,0.5
					c0.2-0.5,0.5-1,0.9-1.5l-2.4-3.3c-0.2-0.3-0.2-0.6,0.1-0.9l1.7-1.7c0.2-0.2,0.6-0.3,0.9-0.1l0.7,0.5c0.2,0.1,0.3,0.3,0.3,0.6
					c0,0.1,0,0.3-0.1,0.4c-0.1,0.2-0.3,0.3-0.6,0.3c-0.1,0-0.3,0-0.4-0.1L26.8,26L26,26.8l2.4,3.2c0.2,0.2,0.2,0.6,0,0.8
					c-0.5,0.7-0.9,1.4-1.2,2.1c-0.1,0.3-0.4,0.4-0.7,0.4l-4-0.5l-0.3,1.1l3.7,1.6c0.3,0.1,0.4,0.4,0.4,0.7c0,0.4-0.1,0.8-0.1,1.2
					c0,0.4,0,0.8,0.1,1.2c0,0.3-0.1,0.6-0.4,0.7l-3.7,1.6l0.3,1.1l4-0.4c0.3,0,0.6,0.1,0.7,0.4c0.3,0.7,0.7,1.4,1.2,2.1
					c0.2,0.2,0.2,0.6,0,0.8L26,48.3l0.8,0.8l3.2-2.4c0.2-0.2,0.6-0.2,0.8,0c0.7,0.5,1.4,0.9,2.1,1.2c0.3,0.1,0.4,0.4,0.4,0.7l-0.5,4
					l1.2,0.3l1.6-3.7c0.1-0.3,0.4-0.4,0.7-0.4c0.8,0.1,1.6,0.1,2.4,0c0.3,0,0.6,0.1,0.7,0.4l1.6,3.7l1.1-0.3l-0.5-4
					c0-0.3,0.1-0.6,0.4-0.7c0.2-0.1,0.3-0.1,0.5-0.2c0.1,0,0.2-0.1,0.3-0.1c0.3,0,0.5,0.1,0.6,0.4c0.2,0.3,0,0.7-0.3,0.9l-0.1,0
					l0.5,4.1c0,0.3-0.2,0.7-0.5,0.7l-2.3,0.6C40.8,54.4,40.7,54.4,40.7,54.4z M48.5,50.6c-0.2,0-0.3-0.1-0.5-0.2l0,0
					c-0.1-0.1-0.2-0.3-0.2-0.5c0-0.2,0.1-0.4,0.2-0.5l1.1-1.1l-2.4-3.2c-0.2-0.2-0.2-0.6,0-0.8c0.4-0.6,0.8-1.3,1.2-2.1
					c0.1-0.3,0.4-0.4,0.7-0.4l4,0.4l0.3-1.1l-3.7-1.6c-0.3-0.1-0.4-0.4-0.4-0.7c0-0.4,0.1-0.8,0.1-1.2c0-0.4,0-0.8-0.1-1.2
					c0-0.3,0.1-0.6,0.4-0.7L53,34l-0.3-1.1l-4,0.5c-0.3,0-0.6-0.1-0.7-0.4c-0.3-0.8-0.7-1.5-1.2-2.1c-0.2-0.2-0.2-0.6,0-0.8l2.4-3.2
					L48.3,26l-3.2,2.4c-0.2,0.2-0.6,0.2-0.8,0c-0.7-0.5-1.4-0.9-2.1-1.2c-0.3-0.1-0.4-0.4-0.4-0.7l0.5-4l-1.1-0.3l-1.6,3.7
					c-0.1,0.3-0.4,0.4-0.7,0.4c-0.8-0.1-1.6-0.1-2.4,0c-0.3,0-0.6-0.1-0.7-0.4l-1.6-3.7l-1.2,0.3l0.4,3.5c0,0.4-0.2,0.7-0.6,0.8
					c-0.4,0-0.7-0.2-0.8-0.6l-0.5-4.1c0-0.3,0.2-0.6,0.5-0.7l2.3-0.6c0.1,0,0.1,0,0.2,0c0.3,0,0.5,0.2,0.6,0.4l1.6,3.8
					c0.6,0,1.1,0,1.7,0l1.6-3.8c0.1-0.3,0.4-0.4,0.6-0.4c0.1,0,0.1,0,0.2,0l2.3,0.6c0.3,0.1,0.5,0.4,0.5,0.7l-0.5,4.1
					c0.5,0.2,1,0.5,1.5,0.9l3.3-2.4c0.3-0.2,0.7-0.2,0.9,0.1l1.7,1.7c0.2,0.2,0.3,0.6,0.1,0.9l-2.5,3.3c0.3,0.5,0.6,0.9,0.9,1.5
					l4.1-0.5c0.3,0,0.7,0.2,0.7,0.5l0.6,2.3c0.1,0.3-0.1,0.7-0.4,0.8l-3.8,1.6c0,0.3,0,0.6,0,0.9c0,0.3,0,0.6,0,0.9l3.8,1.6
					c0.3,0.1,0.5,0.5,0.4,0.8l-0.6,2.3c-0.1,0.3-0.4,0.5-0.7,0.5L49,43.2c-0.3,0.5-0.5,1-0.9,1.5l2.5,3.3c0.2,0.3,0.2,0.7-0.1,0.9
					L49,50.4v0C48.9,50.5,48.7,50.6,48.5,50.6z M45.8,48.8c-0.1,0-0.3,0-0.4-0.1c-0.1-0.1-0.2-0.3-0.3-0.4c0-0.2,0-0.4,0.1-0.5
					c0.1-0.2,0.3-0.3,0.6-0.3c0.1,0,0.3,0,0.4,0.1c0.3,0.2,0.4,0.7,0.1,1C46.2,48.7,46,48.8,45.8,48.8z M30.2,28.3L30.2,28.3
					c-0.1,0-0.3,0-0.4-0.1c-0.1-0.1-0.2-0.3-0.3-0.4c0-0.2,0-0.4,0.1-0.5c0.1-0.2,0.3-0.3,0.6-0.3c0.1,0,0.3,0,0.4,0.1
					c0.1,0.1,0.2,0.3,0.3,0.4c0,0.2,0,0.4-0.1,0.5C30.6,28.2,30.4,28.3,30.2,28.3z"/>
			</g>
			<g>
				<path class="st0" d="M37.6,62.1L37.6,62.1c-1.6,0-3.2-0.2-4.7-0.4c-1.6-0.3-3.1-0.8-4.5-1.3c-3-1.2-5.8-3-8.1-5.4
					c-0.5-0.5-1-1-1.4-1.5c-0.2-0.3-0.2-0.7,0.1-1c0.1-0.1,0.3-0.2,0.4-0.2c0.2,0,0.4,0.1,0.5,0.2c0.4,0.5,0.9,1,1.3,1.5
					c4.4,4.4,10.2,6.8,16.4,6.8c6.2,0,12-2.4,16.4-6.8c4.4-4.4,6.8-10.2,6.8-16.4s-2.4-12-6.8-16.4c-4.4-4.4-10.2-6.8-16.4-6.8
					c-6.2,0-12,2.4-16.4,6.8c-4.4,4.4-6.8,10.2-6.8,16.4c0,3.2,0.7,6.4,1.9,9.3c0,0,0,0,0,0c0,0.1,0.1,0.2,0.1,0.3
					c0,0.3-0.2,0.5-0.4,0.6c-0.1,0-0.2,0.1-0.3,0.1c-0.3,0-0.5-0.2-0.6-0.4c-0.7-1.6-1.2-3.2-1.5-4.8c-0.3-1.6-0.5-3.3-0.5-5
					c0-1.6,0.2-3.1,0.4-4.7c0.3-1.6,0.8-3.1,1.3-4.5c1.2-3,3-5.8,5.4-8.1c2.3-2.3,5.1-4.2,8.1-5.4c1.5-0.6,3-1,4.5-1.3
					c1.5-0.3,3.1-0.4,4.7-0.4h0c1.6,0,3.1,0.2,4.7,0.4c1.6,0.3,3.1,0.8,4.5,1.3c3,1.2,5.8,3,8.1,5.4c2.3,2.3,4.2,5.1,5.4,8.1
					c0.6,1.5,1,3,1.3,4.5c0.3,1.5,0.4,3.1,0.4,4.7c0,1.6-0.2,3.1-0.4,4.7c-0.3,1.6-0.8,3.1-1.3,4.5c-1.2,3-3,5.8-5.4,8.1
					c-2.3,2.3-5.1,4.2-8.1,5.4c-1.5,0.6-3,1-4.5,1.3C40.7,61.9,39.1,62.1,37.6,62.1z M17.3,50.9c-0.2,0-0.5-0.1-0.6-0.3c0,0,0,0,0,0
					c-0.1-0.2-0.1-0.3-0.1-0.5c0-0.2,0.2-0.3,0.3-0.4c0.1-0.1,0.2-0.1,0.4-0.1c0.2,0,0.5,0.1,0.6,0.3c0,0,0,0,0,0
					c0.2,0.3,0.1,0.7-0.2,0.9C17.6,50.8,17.4,50.9,17.3,50.9z"/>
			</g>
			<g>
				<path class="st0" d="M49.2,26.6c-0.2,0-0.4-0.1-0.5-0.2c-0.3-0.3-0.3-0.7,0-1L64.6,9.6c0.1-0.1,0.3-0.2,0.5-0.2
					c0.2,0,0.4,0.1,0.5,0.2c0.3,0.3,0.3,0.7,0,1L49.7,26.4C49.6,26.5,49.4,26.6,49.2,26.6z"/>
			</g>
			<g>
				<path class="st0" d="M68.4,15.2h-7.7c-0.2,0-0.4-0.1-0.5-0.2C60,14.8,60,14.7,60,14.5V6.8c0-0.2,0.1-0.4,0.2-0.5
					c0.1-0.1,0.3-0.2,0.5-0.2h7.7c0.2,0,0.4,0.1,0.5,0.2C69,6.4,69,6.6,69,6.8v7.7c0,0.2-0.1,0.4-0.2,0.5
					C68.7,15.1,68.5,15.2,68.4,15.2z M61.3,13.8h6.3V7.5h-6.3V13.8z"/>
			</g>
			<g>
				<path class="st0" d="M70.4,5.5c-0.2,0-0.4-0.1-0.5-0.2c-0.3-0.3-0.3-0.7,0-1l1.4-1.4c0.1-0.1,0.3-0.2,0.5-0.2
					c0.2,0,0.4,0.1,0.5,0.2c0.3,0.3,0.3,0.7,0,1l-1.4,1.4C70.7,5.4,70.5,5.5,70.4,5.5z"/>
			</g>
			<g>
				<path class="st0" d="M72.5,9.2c-0.3,0-0.6-0.2-0.7-0.5c-0.1-0.4,0.1-0.7,0.5-0.8l2-0.5c0.1,0,0.1,0,0.2,0c0.3,0,0.6,0.2,0.7,0.5
					c0.1,0.4-0.1,0.7-0.5,0.8l-2,0.5C72.6,9.2,72.5,9.2,72.5,9.2z"/>
			</g>
			<g>
				<path class="st0" d="M74.4,14c-0.1,0-0.1,0-0.2,0l-2-0.5c-0.2,0-0.3-0.2-0.4-0.3c-0.1-0.2-0.1-0.3-0.1-0.5
					c0.1-0.3,0.4-0.5,0.7-0.5c0.1,0,0.1,0,0.2,0l2,0.5c0.4,0.1,0.6,0.5,0.5,0.8C75,13.8,74.8,14,74.4,14z"/>
			</g>
			<g>
				<path class="st0" d="M71.8,18.6c-0.2,0-0.4-0.1-0.5-0.2L69.9,17c-0.1-0.1-0.2-0.3-0.2-0.5c0-0.2,0.1-0.4,0.2-0.5
					c0.1-0.1,0.3-0.2,0.5-0.2c0.2,0,0.4,0.1,0.5,0.2l1.4,1.4c0.1,0.1,0.2,0.3,0.2,0.5c0,0.2-0.1,0.4-0.2,0.5
					C72.1,18.5,72,18.6,71.8,18.6z"/>
			</g>
			<g>
				<path class="st0" d="M67.2,21.2L67.2,21.2c-0.3,0-0.6-0.2-0.7-0.5L66,18.8c-0.1-0.4,0.1-0.7,0.5-0.8c0.1,0,0.1,0,0.2,0
					c0.3,0,0.6,0.2,0.7,0.5l0.5,1.9c0.1,0.4-0.1,0.7-0.5,0.8C67.3,21.2,67.2,21.2,67.2,21.2z"/>
			</g>
			<g>
				<path class="st0" d="M56.5,9.2L56.5,9.2c-0.1,0-0.1,0-0.2,0l-2-0.5c-0.4-0.1-0.6-0.5-0.5-0.8c0.1-0.3,0.4-0.5,0.7-0.5
					c0.1,0,0.1,0,0.2,0l2,0.5c0.4,0.1,0.6,0.5,0.5,0.8C57.1,9,56.8,9.2,56.5,9.2z"/>
			</g>
			<g>
				<path class="st0" d="M58.7,5.5L58.7,5.5c-0.2,0-0.4-0.1-0.5-0.2l-1.4-1.4c-0.1-0.1-0.2-0.3-0.2-0.5c0-0.2,0.1-0.4,0.2-0.5
					c0.1-0.1,0.3-0.2,0.5-0.2c0.2,0,0.4,0.1,0.5,0.2l1.4,1.4c0.1,0.1,0.2,0.3,0.2,0.5c0,0.2-0.1,0.4-0.2,0.5
					C59,5.4,58.8,5.5,58.7,5.5z"/>
			</g>
			<g>
				<path class="st0" d="M62.4,3.3c-0.3,0-0.6-0.2-0.7-0.5l-0.5-2c-0.1-0.4,0.1-0.7,0.5-0.8c0.1,0,0.1,0,0.2,0
					c0.3,0,0.6,0.2,0.7,0.5l0.5,2c0,0.2,0,0.4-0.1,0.5c-0.1,0.2-0.2,0.3-0.4,0.3C62.5,3.3,62.4,3.3,62.4,3.3z"/>
			</g>
			<g>
				<path class="st0" d="M66.6,3.3c-0.1,0-0.1,0-0.2,0c-0.2,0-0.3-0.2-0.4-0.3C66,2.8,65.9,2.6,66,2.5l0.5-2C66.6,0.2,66.9,0,67.2,0
					c0.1,0,0.1,0,0.2,0c0.2,0,0.3,0.2,0.4,0.3c0.1,0.2,0.1,0.3,0.1,0.5l-0.5,2C67.2,3.1,67,3.3,66.6,3.3z"/>
			</g>
			<g>
				<path class="st0" d="M65.1,65.7c-0.2,0-0.4-0.1-0.5-0.2L48.7,49.7c-0.1-0.1-0.2-0.3-0.2-0.5c0-0.2,0.1-0.4,0.2-0.5
					c0.3-0.3,0.7-0.3,1,0l15.8,15.8c0.1,0.1,0.2,0.3,0.2,0.5c0,0.2-0.1,0.4-0.2,0.5C65.4,65.6,65.2,65.7,65.1,65.7z"/>
			</g>
			<g>
				<path class="st0" d="M68.4,69h-7.7c-0.2,0-0.4-0.1-0.5-0.2C60,68.7,60,68.5,60,68.4v-7.7c0-0.2,0.1-0.4,0.2-0.5
					c0.1-0.1,0.3-0.2,0.5-0.2h7.7c0.2,0,0.4,0.1,0.5,0.2c0.1,0.1,0.2,0.3,0.2,0.5v7.7c0,0.2-0.1,0.4-0.2,0.5
					C68.7,69,68.5,69,68.4,69z M61.3,67.7h6.3v-6.3h-6.3V67.7z"/>
			</g>
			<g>
				<path class="st0" d="M71.8,72.5c-0.2,0-0.4-0.1-0.5-0.2l-1.4-1.4c-0.3-0.3-0.3-0.7,0-1c0.3-0.3,0.7-0.3,1,0l1.4,1.4
					c0.3,0.3,0.3,0.7,0,1C72.1,72.4,72,72.5,71.8,72.5z"/>
			</g>
			<g>
				<path class="st0" d="M67.2,75.1c-0.3,0-0.6-0.2-0.7-0.5l-0.5-2c0-0.2,0-0.4,0.1-0.5c0.1-0.2,0.2-0.3,0.4-0.3c0.1,0,0.1,0,0.2,0
					c0.3,0,0.6,0.2,0.7,0.5l0.5,2c0.1,0.4-0.1,0.7-0.5,0.8C67.3,75.1,67.2,75.1,67.2,75.1z"/>
			</g>
			<g>
				<path class="st0" d="M61.8,75.1c-0.1,0-0.1,0-0.2,0c-0.4-0.1-0.6-0.5-0.5-0.8l0.5-2c0.1-0.3,0.4-0.5,0.7-0.5c0.1,0,0.1,0,0.2,0
					c0.4,0.1,0.6,0.5,0.5,0.8l-0.5,2C62.4,74.9,62.1,75.1,61.8,75.1z"/>
			</g>
			<g>
				<path class="st0" d="M57.2,72.5c-0.2,0-0.4-0.1-0.5-0.2c-0.1-0.1-0.2-0.3-0.2-0.5c0-0.2,0.1-0.4,0.2-0.5l1.4-1.4
					c0.1-0.1,0.3-0.2,0.5-0.2c0.2,0,0.4,0.1,0.5,0.2c0.1,0.1,0.2,0.3,0.2,0.5c0,0.2-0.1,0.4-0.2,0.5l-1.4,1.4
					C57.6,72.4,57.4,72.5,57.2,72.5z"/>
			</g>
			<g>
				<path class="st0" d="M54.6,67.8L54.6,67.8c-0.3,0-0.6-0.2-0.7-0.5c0-0.2,0-0.4,0.1-0.5c0.1-0.2,0.2-0.3,0.4-0.3l2-0.5
					c0.1,0,0.1,0,0.2,0c0.3,0,0.6,0.2,0.7,0.5c0.1,0.4-0.1,0.7-0.5,0.8l-2,0.5C54.7,67.8,54.6,67.8,54.6,67.8z"/>
			</g>
			<g>
				<path class="st0" d="M66.6,57.2c-0.1,0-0.1,0-0.2,0c-0.4-0.1-0.6-0.5-0.5-0.8l0.5-1.9c0.1-0.3,0.4-0.5,0.7-0.5
					c0.1,0,0.1,0,0.2,0c0.4,0.1,0.6,0.5,0.5,0.8l-0.5,1.9C67.2,57,67,57.2,66.6,57.2z"/>
			</g>
			<g>
				<path class="st0" d="M70.4,59.3c-0.2,0-0.4-0.1-0.5-0.2c-0.3-0.3-0.3-0.7,0-1l1.4-1.4c0.1-0.1,0.3-0.2,0.5-0.2
					c0.2,0,0.4,0.1,0.5,0.2c0.3,0.3,0.3,0.7,0,1l-1.4,1.4C70.7,59.3,70.5,59.3,70.4,59.3z"/>
			</g>
			<g>
				<path class="st0" d="M72.5,63.1c-0.3,0-0.6-0.2-0.7-0.5c0-0.2,0-0.4,0.1-0.5c0.1-0.2,0.2-0.3,0.4-0.3l2-0.5c0.1,0,0.1,0,0.2,0
					c0.3,0,0.6,0.2,0.7,0.5c0.1,0.4-0.1,0.7-0.5,0.8l-2,0.5C72.6,63,72.5,63.1,72.5,63.1z"/>
			</g>
			<g>
				<path class="st0" d="M74.4,67.8L74.4,67.8c-0.1,0-0.1,0-0.2,0l-2-0.5c-0.4-0.1-0.6-0.5-0.5-0.8c0.1-0.3,0.4-0.5,0.7-0.5
					c0.1,0,0.1,0,0.2,0l2,0.5c0.4,0.1,0.6,0.5,0.5,0.8C75,67.6,74.8,67.8,74.4,67.8z"/>
			</g>
			<g>
				<path class="st0" d="M10.1,65.7c-0.2,0-0.4-0.1-0.5-0.2c-0.3-0.3-0.3-0.7,0-1l15.8-15.8c0.1-0.1,0.3-0.2,0.5-0.2
					s0.4,0.1,0.5,0.2c0.3,0.3,0.3,0.7,0,1L10.6,65.5C10.4,65.6,10.3,65.7,10.1,65.7z"/>
			</g>
			<g>
				<path class="st0" d="M14.5,69H6.8c-0.2,0-0.4-0.1-0.5-0.2c-0.1-0.1-0.2-0.3-0.2-0.5v-7.7c0-0.2,0.1-0.4,0.2-0.5
					C6.4,60,6.6,60,6.8,60h7.7c0.2,0,0.4,0.1,0.5,0.2c0.1,0.1,0.2,0.3,0.2,0.5v7.7c0,0.2-0.1,0.4-0.2,0.5C14.8,69,14.7,69,14.5,69z
					 M7.5,67.7h6.3v-6.3H7.5V67.7z"/>
			</g>
			<g>
				<path class="st0" d="M3.4,72.5c-0.2,0-0.4-0.1-0.5-0.2c-0.1-0.1-0.2-0.3-0.2-0.5c0-0.2,0.1-0.4,0.2-0.5l1.4-1.4
					c0.3-0.3,0.7-0.3,1,0c0.1,0.1,0.2,0.3,0.2,0.5c0,0.2-0.1,0.4-0.2,0.5l-1.4,1.4C3.7,72.4,3.5,72.5,3.4,72.5z"/>
			</g>
			<g>
				<path class="st0" d="M0.7,67.8L0.7,67.8c-0.3,0-0.6-0.2-0.7-0.5c-0.1-0.4,0.1-0.7,0.5-0.8l2-0.5c0.1,0,0.1,0,0.2,0
					c0.3,0,0.6,0.2,0.7,0.5c0,0.2,0,0.4-0.1,0.5c-0.1,0.2-0.2,0.3-0.4,0.3l-2,0.5C0.8,67.8,0.7,67.8,0.7,67.8z"/>
			</g>
			<g>
				<path class="st0" d="M2.6,63.1c-0.1,0-0.1,0-0.2,0l-2-0.5c-0.2,0-0.3-0.2-0.4-0.3C0,62,0,61.8,0,61.7c0.1-0.3,0.4-0.5,0.7-0.5
					c0.1,0,0.1,0,0.2,0l2,0.5c0.2,0,0.3,0.2,0.4,0.3c0.1,0.2,0.1,0.3,0.1,0.5C3.2,62.8,3,63.1,2.6,63.1z"/>
			</g>
			<g>
				<path class="st0" d="M4.8,59.3c-0.2,0-0.4-0.1-0.5-0.2l-1.4-1.4c-0.3-0.3-0.3-0.7,0-1c0.3-0.3,0.7-0.3,1,0l1.4,1.4
					c0.1,0.1,0.2,0.3,0.2,0.5c0,0.2-0.1,0.4-0.2,0.5C5.1,59.3,5,59.3,4.8,59.3z"/>
			</g>
			<g>
				<path class="st0" d="M8.5,57.2c-0.3,0-0.6-0.2-0.7-0.5l-0.5-1.9c-0.1-0.4,0.1-0.7,0.5-0.8c0.1,0,0.1,0,0.2,0
					c0.3,0,0.6,0.2,0.7,0.5l0.5,1.9c0.1,0.4-0.1,0.7-0.5,0.8C8.6,57.2,8.5,57.2,8.5,57.2z"/>
			</g>
			<g>
				<path class="st0" d="M20.6,67.8c-0.1,0-0.1,0-0.2,0l-1.9-0.5c-0.4-0.1-0.6-0.5-0.5-0.8c0.1-0.3,0.4-0.5,0.7-0.5
					c0.1,0,0.1,0,0.2,0l1.9,0.5c0.2,0,0.3,0.2,0.4,0.3c0.1,0.2,0.1,0.3,0.1,0.5C21.1,67.6,20.9,67.8,20.6,67.8z"/>
			</g>
			<g>
				<path class="st0" d="M17.9,72.5c-0.2,0-0.4-0.1-0.5-0.2L16,70.8c-0.3-0.3-0.3-0.7,0-1c0.1-0.1,0.3-0.2,0.5-0.2
					c0.2,0,0.4,0.1,0.5,0.2l1.4,1.4c0.3,0.3,0.3,0.7,0,1C18.3,72.4,18.1,72.5,17.9,72.5z"/>
			</g>
			<g>
				<path class="st0" d="M13.3,75.1c-0.3,0-0.6-0.2-0.7-0.5l-0.5-2c0-0.2,0-0.4,0.1-0.5c0.1-0.2,0.2-0.3,0.4-0.3c0.1,0,0.1,0,0.2,0
					c0.3,0,0.6,0.2,0.7,0.5l0.5,2c0.1,0.4-0.1,0.7-0.5,0.8C13.4,75.1,13.3,75.1,13.3,75.1z"/>
			</g>
			<g>
				<path class="st0" d="M8,75.1c-0.1,0-0.1,0-0.2,0c-0.4-0.1-0.6-0.5-0.5-0.8l0.5-2c0.1-0.3,0.4-0.5,0.7-0.5c0.1,0,0.1,0,0.2,0
					c0.2,0,0.3,0.2,0.4,0.3c0.1,0.2,0.1,0.3,0.1,0.5l-0.5,2C8.5,74.9,8.3,75.1,8,75.1z"/>
			</g>
			<g>
				<path class="st0" d="M25.9,26.6c-0.2,0-0.4-0.1-0.5-0.2L9.6,10.6c-0.3-0.3-0.3-0.7,0-1c0.3-0.3,0.7-0.3,1,0l15.8,15.8
					c0.1,0.1,0.2,0.3,0.2,0.5c0,0.2-0.1,0.4-0.2,0.5C26.3,26.5,26.1,26.6,25.9,26.6z"/>
			</g>
			<g>
				<path class="st0" d="M14.5,15.2H6.8c-0.2,0-0.4-0.1-0.5-0.2c-0.1-0.1-0.2-0.3-0.2-0.5V6.8c0-0.2,0.1-0.4,0.2-0.5
					c0.1-0.1,0.3-0.2,0.5-0.2h7.7c0.2,0,0.4,0.1,0.5,0.2c0.1,0.1,0.2,0.3,0.2,0.5v7.7c0,0.2-0.1,0.4-0.2,0.5
					C14.8,15.1,14.7,15.2,14.5,15.2z M7.5,13.8h6.3V7.5H7.5V13.8z"/>
			</g>
			<g>
				<path class="st0" d="M4.8,5.5c-0.2,0-0.4-0.1-0.5-0.2L2.9,3.8C2.7,3.7,2.7,3.5,2.7,3.4c0-0.2,0.1-0.4,0.2-0.5
					c0.3-0.3,0.7-0.3,1,0l1.4,1.4c0.1,0.1,0.2,0.3,0.2,0.5c0,0.2-0.1,0.4-0.2,0.5C5.1,5.4,5,5.5,4.8,5.5z"/>
			</g>
			<g>
				<path class="st0" d="M8.5,3.3L8.5,3.3c-0.3,0-0.6-0.2-0.7-0.5l-0.5-2c0-0.2,0-0.4,0.1-0.5C7.5,0.2,7.6,0.1,7.8,0
					C7.8,0,7.9,0,8,0c0.3,0,0.6,0.2,0.7,0.5l0.5,2c0,0.2,0,0.4-0.1,0.5C9,3.1,8.8,3.3,8.7,3.3C8.6,3.3,8.5,3.3,8.5,3.3z"/>
			</g>
			<g>
				<path class="st0" d="M12.8,3.3L12.8,3.3L12.8,3.3L12.8,3.3c-0.1,0-0.1,0-0.2,0c-0.2,0-0.3-0.2-0.4-0.3c-0.1-0.2-0.1-0.3-0.1-0.5
					l0.5-2C12.7,0.2,13,0,13.3,0c0.1,0,0.1,0,0.2,0C13.8,0.1,14,0.5,14,0.9l-0.5,2C13.3,3.1,13.1,3.3,12.8,3.3z"/>
			</g>
			<g>
				<path class="st0" d="M16.5,5.5c-0.2,0-0.4-0.1-0.5-0.2c-0.3-0.3-0.3-0.7,0-1l1.4-1.4c0.3-0.3,0.7-0.3,1,0c0.3,0.3,0.3,0.7,0,1
					L17,5.3C16.8,5.4,16.7,5.5,16.5,5.5z"/>
			</g>
			<g>
				<path class="st0" d="M18.6,9.2L18.6,9.2c-0.3,0-0.6-0.2-0.7-0.5c-0.1-0.4,0.1-0.7,0.5-0.8l1.9-0.5c0.1,0,0.1,0,0.2,0
					c0.3,0,0.6,0.2,0.7,0.5c0,0.2,0,0.4-0.1,0.5c-0.1,0.2-0.2,0.3-0.4,0.3l-1.9,0.5C18.7,9.2,18.7,9.2,18.6,9.2z"/>
			</g>
			<g>
				<path class="st0" d="M8,21.2c-0.1,0-0.1,0-0.2,0c-0.4-0.1-0.6-0.5-0.5-0.8l0.5-1.9c0.1-0.3,0.4-0.5,0.7-0.5c0.1,0,0.1,0,0.2,0
					C9,18,9.2,18.4,9.1,18.8l-0.5,1.9C8.5,21,8.3,21.2,8,21.2z"/>
			</g>
			<g>
				<path class="st0" d="M3.4,18.6c-0.2,0-0.4-0.1-0.5-0.2c-0.3-0.3-0.3-0.7,0-1L4.3,16c0.1-0.1,0.3-0.2,0.5-0.2
					c0.2,0,0.4,0.1,0.5,0.2c0.3,0.3,0.3,0.7,0,1l-1.4,1.4C3.7,18.5,3.5,18.6,3.4,18.6z"/>
			</g>
			<g>
				<path class="st0" d="M0.7,14c-0.3,0-0.6-0.2-0.7-0.5c0-0.2,0-0.4,0.1-0.5c0.1-0.2,0.2-0.3,0.4-0.3l2-0.5c0.1,0,0.1,0,0.2,0
					c0.3,0,0.6,0.2,0.7,0.5c0,0.2,0,0.4-0.1,0.5c-0.1,0.2-0.2,0.3-0.4,0.3l-2,0.5C0.8,14,0.7,14,0.7,14z"/>
			</g>
			<g>
				<path class="st0" d="M2.6,9.2c-0.1,0-0.1,0-0.2,0l-2-0.5c-0.2,0-0.3-0.2-0.4-0.3C0,8.1,0,8,0,7.8c0.1-0.3,0.4-0.5,0.7-0.5
					c0.1,0,0.1,0,0.2,0l2,0.5c0.4,0.1,0.6,0.5,0.5,0.8C3.2,9,3,9.2,2.6,9.2z"/>
			</g>
		</g>
	</g>
	<g>
		<path class="st0" d="M37.1,44.3V43c-0.8-0.1-1.4-0.2-2-0.6s-1-0.7-1.4-1.2l0.9-0.8c0.3,0.4,0.7,0.8,1.1,1c0.4,0.3,0.8,0.4,1.4,0.5
			V38c-1-0.2-1.8-0.6-2.3-1s-0.7-1.1-0.7-1.9c0-0.4,0.1-0.8,0.2-1.1c0.1-0.3,0.4-0.6,0.6-0.8c0.3-0.2,0.6-0.4,0.9-0.6
			c0.4-0.1,0.8-0.2,1.2-0.3v-1.2h0.9v1.2c0.7,0.1,1.3,0.2,1.8,0.5s0.9,0.7,1.3,1.2l-0.9,0.7c-0.3-0.4-0.6-0.6-0.9-0.9
			c-0.4-0.2-0.8-0.4-1.3-0.4V37l0.1,0c1.1,0.2,1.8,0.6,2.3,1s0.7,1.1,0.7,1.9c0,0.9-0.3,1.6-0.8,2.1c-0.6,0.5-1.3,0.8-2.3,0.9v1.2
			H37.1z M35.3,35.1c0,0.5,0.1,0.9,0.4,1.2c0.3,0.3,0.8,0.5,1.4,0.6v-3.4c-0.5,0.1-1,0.2-1.3,0.5C35.5,34.3,35.3,34.6,35.3,35.1z
			 M40,40.1c0-0.5-0.1-0.9-0.4-1.2c-0.3-0.3-0.8-0.5-1.5-0.7v3.8c0.6-0.1,1.1-0.3,1.4-0.6S40,40.6,40,40.1z"/>
	</g>
</g>
</svg>
