<svg version="1.1" xmlns="http://www.w3.org/2000/svg" xmlns:xlink="http://www.w3.org/1999/xlink" x="0px" y="0px" width="87.4px"
	 height="59.8px" viewBox="0 0 87.4 59.8" style="enable-background:new 0 0 87.4 59.8;" xml:space="preserve">
<style type="text/css">
	.st0{fill:#FFFFFF;}
</style>
<defs>
</defs>
<g>
	<path class="st0" d="M80.4,0c-1.7,0-3,1.4-3,3v2.4l-9.4,12l9.4,12.4v0.9L68,42.4l9.4,12.7v1.7c0,1.7,1.4,3,3,3h3.9c1.7,0,3-1.4,3-3
		v-3.9c0-1.7-1.4-3-3-3h-3.9c-1,0-1.8,0.5-2.3,1.1l-6.3-8.6l6.7-8.3c0.5,0.5,1.2,0.8,2,0.8h3.9c1.7,0,3-1.4,3-3v-4c0-1.7-1.4-3-3-3
		h-3.9c-0.9,0-1.7,0.4-2.2,1l-6.4-8.5L78.4,9c0.5,0.5,1.3,0.9,2.1,0.9h3.9c1.7,0,3-1.4,3-3V3c0-1.7-1.4-3-3-3H80.4z"/>
	<path class="st0" d="M58.9,21.5c0.5,0.6,1.3,0.9,2.1,0.9h3.9c1.7,0,3-1.4,3-3v-3.9c0-1.7-1.4-3-3-3H61c-1.7,0-3,1.4-3,3v2.4
		l-9.3,12l9.4,12.7v1.7c0,1.7,1.4,3,3,3H65c1.7,0,3-1.4,3-3v-3.9c0-1.7-1.4-3-3-3h-3.9c-1,0-1.8,0.4-2.3,1.1l-6.4-8.6L58.9,21.5z"/>
	<path class="st0" d="M22.4,47.3h3.9c1.7,0,3-1.4,3-3v-2.2L38.7,30v1.9c0,1.7,1.4,3,3,3h3.9c1.7,0,3-1.4,3-3v-4c0-1.7-1.4-3-3-3
		h-3.9c-1.7,0-3,1.4-3,3v1.9l-9.3-11.6v-2.8c0-1.7-1.4-3-3-3h-3.9c-1.7,0-3,1.4-3,3v3.9c0,1.7,1.4,3,3,3h3.9c0.7,0,1.4-0.3,1.9-0.7
		l6.6,8.2l-6.4,8.4c-0.5-0.6-1.3-0.9-2.2-0.9h-3.9c-1.7,0-3,1.4-3,3v3.9C19.4,46,20.7,47.3,22.4,47.3z"/>
	<path class="st0" d="M3,59.8h3.9c1.7,0,3-1.4,3-3v-1.5l9.4-13L9.9,30.4V30l9.4-12.6L9.9,5.2V3c0-1.7-1.4-3-3-3H3C1.3,0,0,1.4,0,3
		v3.9c0,1.7,1.4,3,3,3h3.9c0.9,0,1.7-0.4,2.2-1l6.5,8.5L9.2,26c-0.5-0.6-1.3-1.1-2.2-1.1H3.1c-1.7,0-3,1.4-3,3v4c0,1.7,1.4,3,3,3H7
		c0.8,0,1.6-0.3,2.1-0.9l6.6,8.4l-6.3,8.7C8.9,50.3,8,49.8,7,49.8H3.1c-1.7,0-3,1.4-3,3v3.9C0,58.5,1.3,59.8,3,59.8z"/>
</g>
</svg>
