<svg version="1.1" xmlns="http://www.w3.org/2000/svg" xmlns:xlink="http://www.w3.org/1999/xlink" x="0px" y="0px" width="93.8px"
	 height="39.5px" viewBox="0 0 93.8 39.5" style="enable-background:new 0 0 93.8 39.5;" xml:space="preserve">
<style type="text/css">
	.st0{fill:#FFFFFF;}
</style>
<defs>
</defs>
<g>
	<path class="st0" d="M92.9,31.8l-0.7-0.1v-30c0-0.9-0.6-1.7-1.4-1.7H30.6c-0.8,0-1.4,0.8-1.4,1.7v28.8h-3.4V6c0-1.3-1-2.4-2.2-2.4
		h-2.4C20,3.6,19,4.7,19,6v3.9h-6.3c-0.9,0-1.6,0.6-2.1,1.7c0,0.1-2.1,7.9-2.1,7.9l-5.6,1.3c-0.8,0.1-1.4,0.8-1.4,1.6v9.4l-0.7,0
		c-0.5,0-0.9,0.5-0.9,1.1c0,0.6,0.4,1.1,1,1.1h3.8c0.1,3.1,2.5,5.5,5.4,5.5c2.9,0,5.3-2.5,5.4-5.5h13.9c0.1,3.1,2.5,5.6,5.5,5.6
		c2.2,0,4-1.3,4.9-3.3c0.9,1.9,2.8,3.3,4.9,3.3c3,0,5.4-2.5,5.5-5.6h19.3c0.1,3.1,2.5,5.6,5.5,5.6c2.2,0,4-1.3,4.9-3.3
		c0.9,1.9,2.8,3.3,4.9,3.3c3,0,5.4-2.5,5.5-5.6h2.3c0.5,0,1-0.5,1-1.1C93.8,32.3,93.4,31.8,92.9,31.8z M10.8,18.4l1.5-5.9l0.1-0.5
		H13h5.3h0.7v0.7v5.9v0.7h-0.7l-6.8,0h-0.9L10.8,18.4z M10.2,29.8c1,0,1.9,0.4,2.5,1.1c0.6,0.7,1,1.7,1,2.8c0,1.1-0.4,2-1,2.7
		c-0.7,0.7-1.6,1.1-2.5,1.1c-1,0-1.9-0.4-2.5-1.1c-0.6-0.7-1-1.7-1-2.8c0-1.1,0.4-2.1,1-2.8C8.3,30.2,9.2,29.8,10.2,29.8z
		 M23.9,22.2V31v0.7h-0.7h-7.6h-0.3c-0.7-2.3-2.7-3.9-5.1-3.9c-2.4,0-4.4,1.7-5.1,3.9H4.8H4.2H3.5V31v-7.7v-0.6l0.6-0.1l5.1-1.1
		l0.1,0h0.1h0.1l0,0l11.7,0l2,0h0.7L23.9,22.2z M23.9,6.5v4.3v2v5.9v0.7h-0.7h-1.5H21v-0.7V6.5V5.7h0.7h1.5h0.7V6.5z M38.4,34.7
		c-0.5,1.6-1.8,2.7-3.4,2.7c-1.3,0-2.4-0.8-3-1.9c-0.3-0.6-0.5-1.2-0.5-1.9c0-1.1,0.5-2.2,1.2-2.9c0.6-0.6,1.5-1,2.4-1
		c1.3,0,2.3,0.7,3,1.8c0.4,0.6,0.6,1.3,0.6,2.1C38.6,34,38.5,34.4,38.4,34.7z M48.2,35.1c-0.5,1.4-1.8,2.3-3.3,2.3
		c-1.3,0-2.4-0.8-3.1-2c-0.3-0.6-0.5-1.2-0.5-1.9c0-1.1,0.5-2.1,1.2-2.9c0.6-0.6,1.5-1,2.4-1c1.2,0,2.2,0.7,2.9,1.7
		c0.4,0.6,0.7,1.4,0.7,2.2C48.4,34.2,48.3,34.7,48.2,35.1z M75.2,37.5c-1,0-2-0.5-2.6-1.2c-0.6-0.7-0.9-1.6-0.9-2.6
		c0-1.3,0.6-2.5,1.6-3.2c0.6-0.4,1.2-0.7,2-0.7c1.5,0,2.7,0.9,3.3,2.3c0.2,0.5,0.3,1,0.3,1.6C78.8,35.8,77.2,37.5,75.2,37.5z
		 M85,37.5c-1.1,0-2.1-0.6-2.7-1.4c-0.5-0.7-0.8-1.5-0.8-2.4c0-1.3,0.6-2.4,1.5-3.1c0.6-0.5,1.3-0.8,2.1-0.8c1.4,0,2.6,0.9,3.2,2.2
		c0.2,0.5,0.4,1.1,0.4,1.7C88.6,35.8,87,37.5,85,37.5z M90.3,31.7c0,0-0.1-0.2-0.2-0.4c-0.8-2.2-2.8-3.7-5.1-3.7
		c-2.2,0-4,1.4-4.9,3.3c-0.9-1.9-2.8-3.3-4.9-3.3c-2.4,0-4.5,1.7-5.2,4.1h-0.1H50.3h-0.2c-0.7-2.4-2.8-4.1-5.2-4.1
		c-2.2,0-4,1.4-4.9,3.3C39,29,37.2,27.7,35,27.7c-1.5,0-2.9,0.7-3.9,1.8v-6.1h59.2L90.3,31.7L90.3,31.7z M90.3,13.5v7v0.7h-0.7H31.8
		h-0.7v-0.7v-7v-0.7h0.7h57.8h0.7C90.3,12.7,90.3,13.5,90.3,13.5z M90.3,2.9v7v0.7h-0.7H31.8h-0.7V9.9v-7V2.1h0.7h57.8h0.7
		C90.3,2.1,90.3,2.9,90.3,2.9z"/>
</g>
</svg>
