<svg xmlns="http://www.w3.org/2000/svg" viewBox="0 0 22.4 22.4"><defs><style>.cls-1{fill:#fff;}</style></defs><title>twitter_1</title><g id="Layer_2" data-name="Layer 2"><g id="Layer_6" data-name="Layer 6"><path class="cls-1" d="M22.65,2.25v18.4a2,2,0,0,1-2,2H2.25a2,2,0,0,1-2-2V2.25a2,2,0,0,1,2-2h18.4A2,2,0,0,1,22.65,2.25ZM17,8.59a5.92,5.92,0,0,0,1.43-1.48,5.76,5.76,0,0,1-1.65.45A2.89,2.89,0,0,0,18.06,6a5.74,5.74,0,0,1-1.82.7,2.87,2.87,0,0,0-5,2,2.84,2.84,0,0,0,.07.66,8.2,8.2,0,0,1-5.92-3A2.9,2.9,0,0,0,5,7.73a2.86,2.86,0,0,0,1.28,2.39A2.75,2.75,0,0,1,5,9.76v0a2.86,2.86,0,0,0,2.31,2.81,2.79,2.79,0,0,1-.76.11A2.35,2.35,0,0,1,6,12.66a2.88,2.88,0,0,0,2.68,2,5.76,5.76,0,0,1-3.57,1.23c-.23,0-.46,0-.68,0A8.17,8.17,0,0,0,17,9Z" transform="translate(-0.25 -0.25)"/></g></g></svg>